<svg width="230" height="56" viewBox="0 0 230 56" fill="none" xmlns="http://www.w3.org/2000/svg">
<path d="M66.8572 30.7812V35.3794H66.0295V33.4022H63.6385V35.3794H62.8108V30.7812H63.6844V32.6665H66.0755V30.7812H66.8572Z" fill="#404040"/>
<path d="M72.1451 34.2764H69.846L69.3862 35.334H68.5125L70.5817 30.7358H71.4094L73.4785 35.334H72.6049L72.1451 34.2764ZM71.8692 33.6327L70.9955 31.6095L70.1219 33.6327H71.8692Z" fill="#404040"/>
<path d="M81.0199 30.7812V35.3794H75.1342V30.7812H75.9619V34.6437H77.6632V30.7812H78.4909V34.6437H80.1922V30.7812H81.0199Z" fill="#404040"/>
<path d="M85.6179 33.035C85.6179 31.7015 86.6755 30.6899 88.1009 30.6899C89.5264 30.6899 90.5839 31.7015 90.5839 33.035C90.5839 34.3685 89.5264 35.3801 88.1009 35.3801C86.6755 35.426 85.6179 34.4145 85.6179 33.035ZM89.7103 33.035C89.7103 32.1154 89.0206 31.4256 88.1009 31.4256C87.1813 31.4256 86.4916 32.1154 86.4916 33.035C86.4916 33.9546 87.1813 34.6444 88.1009 34.6444C89.0206 34.6444 89.7103 34.0006 89.7103 33.035Z" fill="#404040"/>
<path d="M96.5157 30.7812V35.3794H95.6881V31.517H93.297V35.3794H92.4694V30.7812H96.5157Z" fill="#404040"/>
<path d="M102.539 33.7706C102.539 34.7822 101.85 35.334 100.7 35.334H98.7229V30.7358H99.5506V32.2992H100.838C101.942 32.2992 102.539 32.805 102.539 33.7706ZM101.712 33.8166C101.712 33.2188 101.344 32.9889 100.7 32.9889H99.5965V34.7362H100.7C101.298 34.6903 101.712 34.3684 101.712 33.8166ZM103.183 30.7818H104.011V35.38H103.183V30.7818Z" fill="#404040"/>
<path d="M109.575 31.4715H108.057V35.334H107.23V31.4715H105.712V30.7358H109.575V31.4715Z" fill="#404040"/>
<path d="M115.69 33.4028H114.862V35.334H114.035V30.7358H114.862V32.6671H115.736L117.069 30.7358H117.989L116.426 32.943L118.035 35.288H117.069L115.69 33.4028Z" fill="#404040"/>
<path d="M119.138 33.035C119.138 31.7015 120.196 30.6899 121.621 30.6899C123.047 30.6899 124.104 31.7015 124.104 33.035C124.104 34.3685 123.047 35.3801 121.621 35.3801C120.196 35.3801 119.138 34.4145 119.138 33.035ZM123.231 33.035C123.231 32.1154 122.541 31.4256 121.621 31.4256C120.702 31.4256 120.012 32.1154 120.012 33.035C120.012 33.9546 120.702 34.6444 121.621 34.6444C122.541 34.6444 123.231 34.0006 123.231 33.035Z" fill="#404040"/>
<path d="M130.037 30.7812V35.3794H129.163V33.4022H126.772V35.3794H125.944V30.7812H126.772V32.6665H129.163V30.7812H130.037Z" fill="#404040"/>
<path d="M136.152 34.0919C136.152 34.8736 135.554 35.3794 134.405 35.3794H132.243V30.7812H134.313C135.324 30.7812 135.968 31.1951 135.968 31.9768C135.968 32.4826 135.738 32.8044 135.278 32.9884C135.83 33.1263 136.152 33.4942 136.152 34.0919ZM133.117 32.7125H134.267C134.818 32.7125 135.094 32.4826 135.094 32.0687C135.094 31.6549 134.818 31.425 134.267 31.425H133.117V32.7125ZM135.324 34C135.324 33.5401 135.002 33.3102 134.405 33.3102H133.117V34.6437H134.405C135.002 34.6897 135.324 34.4598 135.324 34Z" fill="#404040"/>
<path d="M141.532 34.6437V35.3794H138.083V30.7812H141.44V31.517H138.957V32.7125H141.164V33.4022H138.957V34.6437H141.532Z" fill="#404040"/>
<path d="M147.233 32.3912C147.233 33.4028 146.498 34.0005 145.302 34.0005H144.291V35.334H143.463V30.7358H145.348C146.498 30.7818 147.233 31.3796 147.233 32.3912ZM146.36 32.3912C146.36 31.7934 145.992 31.4715 145.21 31.4715H144.199V33.3108H145.21C145.992 33.3108 146.36 32.9889 146.36 32.3912Z" fill="#404040"/>
<path d="M152.153 31.4715H150.636V35.334H149.808V31.4715H148.291V30.7358H152.153V31.4715Z" fill="#404040"/>
<path d="M153.855 30.7812H154.682V34.0459L157.119 30.7812H157.901V35.3794H157.073V32.1147L154.636 35.3794H153.855V30.7812Z" fill="#404040"/>
<path d="M163.971 32.3912C163.971 33.4028 163.235 34.0005 162.04 34.0005H161.028V35.334H160.2V30.7358H162.086C163.235 30.7818 163.971 31.3796 163.971 32.3912ZM163.143 32.3912C163.143 31.7934 162.775 31.4715 161.994 31.4715H160.982V33.3108H161.994C162.729 33.3108 163.143 32.9889 163.143 32.3912Z" fill="#404040"/>
<path d="M169.58 30.7812L167.603 34.4598C167.235 35.1495 166.73 35.4254 166.178 35.4254C165.948 35.4254 165.718 35.3794 165.488 35.2874L165.718 34.5977C165.902 34.6437 166.04 34.6897 166.178 34.6897C166.454 34.6897 166.684 34.5517 166.868 34.2759L166.96 34.1839L165.12 30.7812H166.04L167.373 33.4482L168.753 30.7812H169.58Z" fill="#404040"/>
<path d="M174.546 34.6437V35.3794H171.098V30.7812H174.454V31.517H171.971V32.7125H174.179V33.4022H171.971V34.6437H174.546Z" fill="#404040"/>
<path d="M179.742 31.4715H178.225V35.334H177.397V31.4715H175.88V30.7358H179.742V31.4715Z" fill="#404040"/>
<path d="M180.984 33.035C180.984 31.6556 182.042 30.6899 183.421 30.6899C184.157 30.6899 184.801 30.9658 185.215 31.4716L184.663 31.9774C184.341 31.6096 183.927 31.4256 183.421 31.4256C182.456 31.4256 181.766 32.1154 181.766 33.035C181.766 33.9546 182.456 34.6444 183.421 34.6444C183.881 34.6444 184.295 34.4604 184.663 34.0926L185.215 34.5984C184.801 35.1042 184.157 35.3801 183.375 35.3801C182.042 35.426 180.984 34.4145 180.984 33.035Z" fill="#404040"/>
<path d="M190.41 30.7812V35.3794H189.583V34.0919H188.433H188.341L187.467 35.3794H186.594L187.559 33.954C186.916 33.7241 186.548 33.2183 186.548 32.4826C186.548 31.425 187.283 30.7812 188.479 30.7812H190.41ZM187.421 32.4366C187.421 33.0343 187.789 33.3562 188.479 33.3562H189.537V31.471H188.479C187.835 31.471 187.421 31.7928 187.421 32.4366Z" fill="#404040"/>
<path d="M66.7192 42.9205C66.7192 43.7022 66.1215 44.208 64.9719 44.208H62.8108V39.6099H64.88C65.8916 39.6099 66.5353 40.0237 66.5353 40.8054C66.5353 41.3112 66.3054 41.6331 65.8456 41.817C66.3974 41.9549 66.7192 42.3228 66.7192 42.9205ZM63.6385 41.5411H64.788C65.3398 41.5411 65.6157 41.3112 65.6157 40.8973C65.6157 40.4835 65.3398 40.2536 64.788 40.2536H63.6385V41.5411ZM65.8456 42.8286C65.8456 42.3688 65.5237 42.1389 64.9259 42.1389H63.6385V43.4723H64.9259C65.5237 43.5183 65.8456 43.2884 65.8456 42.8286Z" fill="#404040"/>
<path d="M75.2718 42.9205C75.2718 43.7022 74.6741 44.208 73.5245 44.208H71.3634V39.6099H73.4326C74.4442 39.6099 75.0879 40.0237 75.0879 40.8054C75.0879 41.3112 74.858 41.6331 74.3982 41.817C74.95 41.9549 75.2718 42.3228 75.2718 42.9205ZM72.1911 41.5411H73.3406C73.8924 41.5411 74.1683 41.3112 74.1683 40.8973C74.1683 40.4835 73.8924 40.2536 73.3406 40.2536H72.1911V41.5411ZM74.4442 42.8286C74.4442 42.3688 74.1223 42.1389 73.5245 42.1389H72.2371V43.4723H73.5245C74.1223 43.5183 74.4442 43.2884 74.4442 42.8286Z" fill="#404040"/>
<path d="M80.2381 43.105H77.939L77.4792 44.1626H76.6055L78.6747 39.5645H79.5024L81.5715 44.1626H80.6979L80.2381 43.105ZM79.9622 42.4613L79.0885 40.4381L78.2149 42.4613H79.9622Z" fill="#404040"/>
<path d="M89.1126 39.6099V44.208H83.2269V39.6099H84.0546V43.4723H85.7559V39.6099H86.5836V43.4723H88.2849V39.6099H89.1126Z" fill="#404040"/>
<path d="M95.2738 39.6099L93.2966 43.2884C92.9288 43.9781 92.423 44.254 91.8712 44.254C91.6413 44.254 91.4114 44.208 91.1815 44.1161L91.4114 43.4263C91.5953 43.4723 91.7332 43.5183 91.8712 43.5183C92.1471 43.5183 92.377 43.3804 92.5609 43.1045L92.6529 43.0125L90.8136 39.6099H91.7332L93.0667 42.2768L94.4461 39.6099H95.2738Z" fill="#404040"/>
<path d="M103.551 39.6099L101.573 43.2884C101.206 43.9781 100.7 44.254 100.148 44.254C99.9181 44.254 99.6882 44.208 99.4583 44.1161L99.6882 43.4263C99.8721 43.4723 100.01 43.5183 100.148 43.5183C100.424 43.5183 100.654 43.3804 100.838 43.1045L100.93 43.0125L99.0905 39.6099H100.01L101.344 42.2768L102.723 39.6099H103.551Z" fill="#404040"/>
<path d="M108.977 42.9205C108.977 43.7022 108.379 44.208 107.229 44.208H105.068V39.6099H107.137C108.149 39.6099 108.793 40.0237 108.793 40.8054C108.793 41.3112 108.563 41.6331 108.103 41.817C108.655 41.9549 108.977 42.3228 108.977 42.9205ZM105.942 41.5411H107.091C107.643 41.5411 107.919 41.3112 107.919 40.8973C107.919 40.4835 107.643 40.2536 107.091 40.2536H105.942V41.5411ZM108.149 42.8286C108.149 42.3688 107.827 42.1389 107.229 42.1389H105.942V43.4723H107.229C107.827 43.5183 108.149 43.2884 108.149 42.8286Z" fill="#404040"/>
<path d="M114.357 43.4723V44.208H110.908V39.6099H114.265V40.2996H111.782V41.4951H113.989V42.1848H111.782V43.4263H114.357V43.4723Z" fill="#404040"/>
<path d="M120.058 41.2198C120.058 42.2314 119.323 42.8291 118.127 42.8291H117.069V44.1626H116.242V39.5645H118.127C119.323 39.6104 120.058 40.2082 120.058 41.2198ZM119.185 41.2198C119.185 40.622 118.817 40.3002 118.035 40.3002H117.069V42.1394H118.081C118.817 42.1394 119.185 41.8176 119.185 41.2198Z" fill="#404040"/>
<path d="M125.254 43.4723V44.208H121.806V39.6099H125.162V40.2996H122.679V41.4951H124.886V42.1848H122.679V43.4263H125.254V43.4723Z" fill="#404040"/>
<path d="M131.186 39.6099V44.208H130.312V42.2308H127.921V44.208H127.093V39.6099H127.921V41.4951H130.312V39.6099H131.186Z" fill="#404040"/>
<path d="M137.485 39.6099V44.208H136.612V42.2308H134.22V44.208H133.393V39.6099H134.22V41.4951H136.612V39.6099H137.485Z" fill="#404040"/>
<path d="M139.37 41.8636C139.37 40.5301 140.428 39.5186 141.853 39.5186C143.279 39.5186 144.336 40.5301 144.336 41.8636C144.336 43.1971 143.279 44.2087 141.853 44.2087C140.428 44.2087 139.37 43.2431 139.37 41.8636ZM143.417 41.8636C143.417 40.944 142.727 40.2543 141.808 40.2543C140.888 40.2543 140.198 40.944 140.198 41.8636C140.198 42.7832 140.888 43.473 141.808 43.473C142.727 43.473 143.417 42.8292 143.417 41.8636Z" fill="#404040"/>
<path d="M145.808 41.8636C145.808 40.4842 146.866 39.5186 148.245 39.5186C148.981 39.5186 149.625 39.7944 150.038 40.3002L149.487 40.806C149.165 40.4382 148.751 40.2543 148.245 40.2543C147.28 40.2543 146.59 40.944 146.59 41.8636C146.59 42.7832 147.28 43.473 148.245 43.473C148.705 43.473 149.119 43.289 149.487 42.9212L150.038 43.427C149.625 43.9328 148.981 44.2087 148.199 44.2087C146.866 44.2547 145.808 43.2431 145.808 41.8636Z" fill="#404040"/>
<path d="M155.096 40.3002H153.579V44.1626H152.751V40.3002H151.234V39.5645H155.096V40.3002Z" fill="#404040"/>
<path d="M160.568 42.5992C160.568 43.6108 159.879 44.1626 158.729 44.1626H156.752V39.5645H157.58V41.1278H158.867C159.971 41.1278 160.568 41.6336 160.568 42.5992ZM159.741 42.6452C159.741 42.0475 159.373 41.8176 158.729 41.8176H157.626V43.5649H158.729C159.373 43.5189 159.741 43.197 159.741 42.6452Z" fill="#404040"/>
<path d="M73.9383 11.5151C70.6276 11.5151 68.0066 13.5843 67.3629 16.6651H65.8455V11.6991H62.8107V24.39H65.8455V19.332H67.3169C67.8687 22.5047 70.5356 24.6659 73.9383 24.6659C77.8467 24.6659 80.6516 21.907 80.6516 18.0905C80.6516 14.274 77.8467 11.5151 73.9383 11.5151ZM73.9383 21.9989C71.8691 21.9989 70.3517 20.3436 70.3517 18.0905C70.3517 15.8374 71.8691 14.1821 73.9383 14.1821C76.0074 14.1821 77.5248 15.8374 77.5248 18.0905C77.5248 20.3436 76.0534 21.9989 73.9383 21.9989Z" fill="#064570"/>
<path d="M88.4228 11.6992H82.905V24.3901H85.9858V20.9415H88.4228C91.8255 20.9415 93.9406 19.1942 93.9406 16.3434C93.9406 13.4925 91.8255 11.6992 88.4228 11.6992ZM88.2849 18.4125H85.9858V14.2282H88.2849C89.9862 14.2282 90.8598 14.9639 90.8598 16.3434C90.8598 17.7228 89.9402 18.4125 88.2849 18.4125Z" fill="#064570"/>
<path d="M98.9067 19.7V11.6992H95.8719V24.3901H98.7228L104.608 16.4353V24.3901H107.643V11.6992H104.792L98.9067 19.7Z" fill="#064570"/>
<path d="M116.931 14.1362C118.127 14.1362 119.184 14.642 120.012 15.5616L120.058 15.6076L122.035 13.7683L121.989 13.7223C120.794 12.2509 118.955 11.4692 116.747 11.4692C112.747 11.4692 109.85 14.2281 109.85 18.0446C109.85 21.8611 112.747 24.62 116.701 24.62C118.909 24.62 120.748 23.8383 121.943 22.3669L121.989 22.3209L120.012 20.4816L119.966 20.5276C119.138 21.4932 118.081 21.999 116.885 21.999C114.586 21.999 112.977 20.3897 112.977 18.0906C112.977 15.7915 114.586 14.1362 116.931 14.1362Z" fill="#064570"/>
<path d="M122.495 14.2282H126.496V24.3901H129.53V14.2282H133.531V11.6992H122.495V14.2282Z" fill="#064570"/>
<path d="M139.325 18.0908H134.083V20.4819H139.325V18.0908Z" fill="#064570"/>
<path d="M145.762 11.5151C143.509 11.5151 141.67 12.2968 140.474 13.7682L140.428 13.8142L142.405 15.6535L142.451 15.6075C143.325 14.6419 144.383 14.1361 145.624 14.1361C147.325 14.1361 148.613 15.1477 149.073 16.803H144.061V19.1941H149.119C148.705 20.9414 147.371 21.9989 145.67 21.9989C144.429 21.9989 143.371 21.4931 142.497 20.5275L142.451 20.4815L140.474 22.3208L140.52 22.3668C141.716 23.8382 143.555 24.6199 145.808 24.6199C149.625 24.6199 152.383 21.861 152.383 18.0445C152.383 14.228 149.579 11.5151 145.762 11.5151Z" fill="#064570"/>
<path d="M166.086 11.8372L166.178 11.6992H162.913L159.603 16.7572H157.671V11.6992H154.591V24.3901H157.671V19.3781H159.511L162.775 24.3901H166.27L161.994 17.8608L166.086 11.8372Z" fill="#064570"/>
<path d="M173.673 14.1362C174.868 14.1362 175.926 14.642 176.754 15.5616L176.8 15.6076L178.777 13.7683L178.731 13.7223C177.535 12.2509 175.696 11.4692 173.489 11.4692C169.489 11.4692 166.592 14.2281 166.592 18.0446C166.592 21.8611 169.489 24.62 173.443 24.62C175.65 24.62 177.489 23.8383 178.685 22.3669L178.731 22.3209L176.754 20.4816L176.708 20.5276C175.88 21.4932 174.822 21.999 173.627 21.999C171.328 21.999 169.719 20.3897 169.719 18.0906C169.719 15.7915 171.374 14.1362 173.673 14.1362Z" fill="#064570"/>
<path d="M180.708 24.3901H183.743V14.2282H189.215V24.3901H192.295V11.6992H180.708V24.3901Z" fill="#064570"/>
<path d="M198.456 19.1942H204.25V16.7572H198.456V14.2282H205.032V11.6992H195.422V24.3901H205.262V21.9071H198.456V19.1942Z" fill="#064570"/>
<path d="M213.124 11.6992H207.607V24.3901H210.687V20.9415H213.124C216.527 20.9415 218.642 19.1942 218.642 16.3434C218.642 13.4925 216.527 11.6992 213.124 11.6992ZM212.987 18.4125H210.733V14.2282H212.987C214.688 14.2282 215.562 14.9639 215.562 16.3434C215.562 17.7228 214.642 18.4125 212.987 18.4125Z" fill="#064570"/>
<path d="M218.965 11.6992V14.2282H222.919V24.3901H226V14.2282H230V11.6992H218.965Z" fill="#064570"/>
<path d="M39.7281 15.6992C36.4174 12.3885 32.0952 10.5952 27.543 10.5952C22.9908 10.5952 18.6685 12.4345 15.4038 15.6992C12.6449 18.4581 10.9436 21.9067 10.4378 25.5852H4.69012C5.10396 21.6308 6.57537 17.8143 9.0124 14.4577L9.05838 14.4117L5.79368 11.2849L5.7477 11.3769C2.02319 16.159 0 22.0446 0 27.8843C0 33.724 2.02319 39.6096 5.70172 44.3917L5.7477 44.4837L8.96641 41.4029L9.0124 41.3569L8.96641 41.3109C6.52939 37.9543 5.05798 34.1838 4.64414 30.1834H10.3918C10.8976 33.9079 12.599 37.3565 15.3579 40.0694C18.6685 43.3801 22.9908 45.1734 27.543 45.1734C32.0952 45.1734 36.4174 43.3801 39.7281 40.0694C43.0388 36.7587 44.8321 32.4365 44.8321 27.8843C44.8321 23.3321 42.9928 19.0098 39.7281 15.6992ZM27.543 40.6212C20.6457 40.6212 14.8061 34.7815 14.8061 27.8843C14.8061 20.9871 20.6457 15.1474 27.543 15.1474C34.4402 15.1474 40.2799 20.9871 40.2799 27.8843C40.2799 34.7815 34.4402 40.6212 27.543 40.6212Z" fill="#064570"/>
<path d="M46.8095 8.48054C41.5676 3.23864 34.6704 0.341797 27.4053 0.341797C21.1058 0.341797 14.9442 2.5949 9.97823 6.68726L9.93225 6.73324L13.2429 9.90597L13.2889 9.85999C17.3353 6.64128 22.3473 4.89398 27.4053 4.89398C39.8663 4.89398 50.3961 15.4238 50.3961 27.8848C50.3961 40.3458 39.8663 50.8756 27.4053 50.8756C22.3473 50.8756 17.3353 49.1283 13.2429 45.9096L13.1969 45.8636L9.97823 48.9444L9.93225 49.0363L10.0242 49.0823C14.9902 53.1747 21.1518 55.4278 27.4512 55.4278C34.7163 55.4278 41.6136 52.5309 46.8555 47.289C52.0974 42.0471 54.9942 35.1499 54.9942 27.8848C54.9942 20.6197 52.0514 13.7224 46.8095 8.48054Z" fill="#404040"/>
</svg>
