<svg width="280" height="15" viewBox="0 0 280 15" fill="none" xmlns="http://www.w3.org/2000/svg">
<path d="M9.63281 0.164062L9.875 3.76562H9.63281C9.3099 2.6875 8.84896 1.91146 8.25 1.4375C7.65104 0.963542 6.93229 0.726562 6.09375 0.726562C5.39062 0.726562 4.75521 0.90625 4.1875 1.26562C3.61979 1.61979 3.17188 2.1875 2.84375 2.96875C2.52083 3.75 2.35938 4.72135 2.35938 5.88281C2.35938 6.84115 2.51302 7.67188 2.82031 8.375C3.1276 9.07812 3.58854 9.61719 4.20312 9.99219C4.82292 10.3672 5.52865 10.5547 6.32031 10.5547C7.00781 10.5547 7.61458 10.4089 8.14062 10.1172C8.66667 9.82031 9.24479 9.23438 9.875 8.35938L10.1172 8.51562C9.58594 9.45833 8.96615 10.1484 8.25781 10.5859C7.54948 11.0234 6.70833 11.2422 5.73438 11.2422C3.97917 11.2422 2.61979 10.5911 1.65625 9.28906C0.9375 8.32031 0.578125 7.17969 0.578125 5.86719C0.578125 4.8099 0.815104 3.83854 1.28906 2.95312C1.76302 2.06771 2.41406 1.38281 3.24219 0.898438C4.07552 0.408854 4.98438 0.164062 5.96875 0.164062C6.73438 0.164062 7.48958 0.351562 8.23438 0.726562C8.45312 0.841146 8.60938 0.898438 8.70312 0.898438C8.84375 0.898438 8.96615 0.848958 9.07031 0.75C9.20573 0.609375 9.30208 0.414062 9.35938 0.164062H9.63281ZM15.0353 9.96875C14.3009 10.5365 13.8399 10.8646 13.6524 10.9531C13.3712 11.0833 13.0717 11.1484 12.754 11.1484C12.2592 11.1484 11.8504 10.9792 11.5274 10.6406C11.2097 10.3021 11.0509 9.85677 11.0509 9.30469C11.0509 8.95573 11.129 8.65365 11.2853 8.39844C11.4988 8.04427 11.8686 7.71094 12.3946 7.39844C12.9259 7.08594 13.8061 6.70573 15.0353 6.25781V5.97656C15.0353 5.26302 14.9207 4.77344 14.6915 4.50781C14.4676 4.24219 14.1394 4.10938 13.7071 4.10938C13.379 4.10938 13.1186 4.19792 12.9259 4.375C12.728 4.55208 12.629 4.75521 12.629 4.98438L12.6446 5.4375C12.6446 5.67708 12.5821 5.86198 12.4571 5.99219C12.3373 6.1224 12.1785 6.1875 11.9806 6.1875C11.7879 6.1875 11.629 6.11979 11.504 5.98438C11.3842 5.84896 11.3243 5.66406 11.3243 5.42969C11.3243 4.98177 11.5535 4.57031 12.0118 4.19531C12.4702 3.82031 13.1134 3.63281 13.9415 3.63281C14.5769 3.63281 15.0978 3.73958 15.504 3.95312C15.8113 4.11458 16.0379 4.36719 16.1837 4.71094C16.2774 4.9349 16.3243 5.39323 16.3243 6.08594V8.51562C16.3243 9.19792 16.3373 9.61719 16.3634 9.77344C16.3894 9.92448 16.4311 10.026 16.4884 10.0781C16.5509 10.1302 16.6212 10.1562 16.6993 10.1562C16.7827 10.1562 16.8556 10.138 16.9181 10.1016C17.0274 10.0339 17.2384 9.84375 17.5509 9.53125V9.96875C16.9676 10.75 16.4103 11.1406 15.879 11.1406C15.6238 11.1406 15.4207 11.0521 15.2696 10.875C15.1186 10.6979 15.0405 10.3958 15.0353 9.96875ZM15.0353 9.46094V6.73438C14.2488 7.04688 13.741 7.26823 13.5118 7.39844C13.1004 7.6276 12.8061 7.86719 12.629 8.11719C12.4519 8.36719 12.3634 8.64062 12.3634 8.9375C12.3634 9.3125 12.4754 9.625 12.6993 9.875C12.9233 10.1198 13.1811 10.2422 13.4728 10.2422C13.8686 10.2422 14.3894 9.98177 15.0353 9.46094ZM18.7736 3.84375H25.1721V4.14062C24.8179 4.14062 24.5809 4.17708 24.4611 4.25C24.3466 4.31771 24.2554 4.40365 24.1877 4.50781C24.12 4.61198 24.0861 4.95052 24.0861 5.52344V9.32031C24.0861 9.8724 24.1148 10.2031 24.1721 10.3125C24.2294 10.4167 24.3179 10.5104 24.4377 10.5938C24.5627 10.6719 24.8075 10.7109 25.1721 10.7109V11H21.469V10.7109C21.87 10.7109 22.146 10.6901 22.2971 10.6484C22.4533 10.6068 22.5757 10.5078 22.6643 10.3516C22.7528 10.1901 22.7971 9.84635 22.7971 9.32031V4.35156H20.4143V7.36719C20.4143 8.50781 20.3622 9.3099 20.258 9.77344C20.1591 10.2318 19.9585 10.5729 19.6565 10.7969C19.3596 11.0156 19.0184 11.125 18.633 11.125C17.9664 11.125 17.633 10.849 17.633 10.2969C17.633 10.1094 17.6851 9.95573 17.7893 9.83594C17.8986 9.71615 18.0393 9.65625 18.2111 9.65625C18.3934 9.65625 18.5627 9.73177 18.719 9.88281C18.9221 10.0807 19.0757 10.1797 19.1799 10.1797C19.4143 10.1797 19.5835 9.98438 19.6877 9.59375C19.7971 9.19792 19.8518 8.50781 19.8518 7.52344V5.94531C19.8518 5.13281 19.7919 4.63802 19.6721 4.46094C19.5575 4.28385 19.258 4.17708 18.7736 4.14062V3.84375ZM31.1605 4.35156H28.0667V9.32031C28.0667 9.8724 28.0954 10.2031 28.1527 10.3125C28.21 10.4167 28.2985 10.5104 28.4183 10.5938C28.5433 10.6719 28.7881 10.7109 29.1527 10.7109V11H25.6917V10.7109C26.1553 10.7109 26.4521 10.6276 26.5823 10.4609C26.7126 10.2891 26.7777 9.90885 26.7777 9.32031V5.52344C26.7777 4.96615 26.749 4.63802 26.6917 4.53906C26.6344 4.4349 26.5459 4.34375 26.4261 4.26562C26.3063 4.18229 26.0615 4.14062 25.6917 4.14062V3.84375H33.5355V4.14062C33.1865 4.14062 32.9521 4.17708 32.8323 4.25C32.7126 4.31771 32.6188 4.40365 32.5511 4.50781C32.4834 4.61198 32.4495 4.95052 32.4495 5.52344V9.32031C32.4495 9.8724 32.4782 10.2031 32.5355 10.3125C32.5928 10.4167 32.6813 10.5104 32.8011 10.5938C32.9261 10.6719 33.1709 10.7109 33.5355 10.7109V11H30.0745V10.7109C30.5068 10.7109 30.7959 10.6328 30.9417 10.4766C31.0876 10.3151 31.1605 9.92969 31.1605 9.32031V4.35156ZM38.2582 9.96875C37.5239 10.5365 37.0629 10.8646 36.8754 10.9531C36.5942 11.0833 36.2947 11.1484 35.977 11.1484C35.4822 11.1484 35.0733 10.9792 34.7504 10.6406C34.4327 10.3021 34.2739 9.85677 34.2739 9.30469C34.2739 8.95573 34.352 8.65365 34.5082 8.39844C34.7218 8.04427 35.0916 7.71094 35.6176 7.39844C36.1489 7.08594 37.0291 6.70573 38.2582 6.25781V5.97656C38.2582 5.26302 38.1437 4.77344 37.9145 4.50781C37.6905 4.24219 37.3624 4.10938 36.9301 4.10938C36.602 4.10938 36.3416 4.19792 36.1489 4.375C35.9509 4.55208 35.852 4.75521 35.852 4.98438L35.8676 5.4375C35.8676 5.67708 35.8051 5.86198 35.6801 5.99219C35.5603 6.1224 35.4015 6.1875 35.2035 6.1875C35.0108 6.1875 34.852 6.11979 34.727 5.98438C34.6072 5.84896 34.5473 5.66406 34.5473 5.42969C34.5473 4.98177 34.7765 4.57031 35.2348 4.19531C35.6931 3.82031 36.3364 3.63281 37.1645 3.63281C37.7999 3.63281 38.3207 3.73958 38.727 3.95312C39.0343 4.11458 39.2608 4.36719 39.4067 4.71094C39.5004 4.9349 39.5473 5.39323 39.5473 6.08594V8.51562C39.5473 9.19792 39.5603 9.61719 39.5864 9.77344C39.6124 9.92448 39.6541 10.026 39.7114 10.0781C39.7739 10.1302 39.8442 10.1562 39.9223 10.1562C40.0056 10.1562 40.0785 10.138 40.141 10.1016C40.2504 10.0339 40.4614 9.84375 40.7739 9.53125V9.96875C40.1905 10.75 39.6332 11.1406 39.102 11.1406C38.8468 11.1406 38.6437 11.0521 38.4926 10.875C38.3416 10.6979 38.2634 10.3958 38.2582 9.96875ZM38.2582 9.46094V6.73438C37.4718 7.04688 36.964 7.26823 36.7348 7.39844C36.3233 7.6276 36.0291 7.86719 35.852 8.11719C35.6749 8.36719 35.5864 8.64062 35.5864 8.9375C35.5864 9.3125 35.6983 9.625 35.9223 9.875C36.1463 10.1198 36.4041 10.2422 36.6957 10.2422C37.0916 10.2422 37.6124 9.98177 38.2582 9.46094ZM46.7935 3.84375L47.0826 5.79688H46.7388C46.5409 5.15104 46.3404 4.75 46.1372 4.59375C45.9393 4.43229 45.5175 4.35156 44.8716 4.35156H43.356V9.32031C43.356 9.8724 43.3846 10.2031 43.4419 10.3125C43.4992 10.4167 43.5878 10.5104 43.7076 10.5938C43.8326 10.6719 44.0773 10.7109 44.4419 10.7109V11H40.8638V10.7109C41.3742 10.7005 41.7023 10.6224 41.8482 10.4766C41.994 10.3255 42.0669 9.9401 42.0669 9.32031V5.52344C42.0669 5.01823 42.0383 4.69531 41.981 4.55469C41.9237 4.40885 41.8221 4.30469 41.6763 4.24219C41.5357 4.17969 41.2648 4.14583 40.8638 4.14062V3.84375H46.7935ZM51.5475 9.96875C50.8131 10.5365 50.3522 10.8646 50.1647 10.9531C49.8834 11.0833 49.584 11.1484 49.2663 11.1484C48.7715 11.1484 48.3626 10.9792 48.0397 10.6406C47.722 10.3021 47.5631 9.85677 47.5631 9.30469C47.5631 8.95573 47.6413 8.65365 47.7975 8.39844C48.011 8.04427 48.3808 7.71094 48.9069 7.39844C49.4381 7.08594 50.3183 6.70573 51.5475 6.25781V5.97656C51.5475 5.26302 51.4329 4.77344 51.2038 4.50781C50.9798 4.24219 50.6517 4.10938 50.2194 4.10938C49.8913 4.10938 49.6308 4.19792 49.4381 4.375C49.2402 4.55208 49.1413 4.75521 49.1413 4.98438L49.1569 5.4375C49.1569 5.67708 49.0944 5.86198 48.9694 5.99219C48.8496 6.1224 48.6907 6.1875 48.4928 6.1875C48.3001 6.1875 48.1413 6.11979 48.0163 5.98438C47.8965 5.84896 47.8366 5.66406 47.8366 5.42969C47.8366 4.98177 48.0657 4.57031 48.5241 4.19531C48.9824 3.82031 49.6256 3.63281 50.4538 3.63281C51.0892 3.63281 51.61 3.73958 52.0163 3.95312C52.3235 4.11458 52.5501 4.36719 52.6959 4.71094C52.7897 4.9349 52.8366 5.39323 52.8366 6.08594V8.51562C52.8366 9.19792 52.8496 9.61719 52.8756 9.77344C52.9017 9.92448 52.9433 10.026 53.0006 10.0781C53.0631 10.1302 53.1334 10.1562 53.2116 10.1562C53.2949 10.1562 53.3678 10.138 53.4303 10.1016C53.5397 10.0339 53.7506 9.84375 54.0631 9.53125V9.96875C53.4798 10.75 52.9225 11.1406 52.3913 11.1406C52.136 11.1406 51.9329 11.0521 51.7819 10.875C51.6308 10.6979 51.5527 10.3958 51.5475 9.96875ZM51.5475 9.46094V6.73438C50.761 7.04688 50.2532 7.26823 50.0241 7.39844C49.6126 7.6276 49.3183 7.86719 49.1413 8.11719C48.9642 8.36719 48.8756 8.64062 48.8756 8.9375C48.8756 9.3125 48.9876 9.625 49.2116 9.875C49.4355 10.1198 49.6933 10.2422 49.985 10.2422C50.3808 10.2422 50.9017 9.98177 51.5475 9.46094ZM53.8953 4.55469L56.0984 3.66406H56.3953V5.33594C56.7651 4.70573 57.1349 4.26562 57.5046 4.01562C57.8796 3.76042 58.2729 3.63281 58.6843 3.63281C59.4031 3.63281 60.002 3.91406 60.4812 4.47656C61.0698 5.16406 61.364 6.0599 61.364 7.16406C61.364 8.39844 61.0099 9.41927 60.3015 10.2266C59.7182 10.888 58.9838 11.2188 58.0984 11.2188C57.713 11.2188 57.3796 11.1641 57.0984 11.0547C56.8901 10.9766 56.6557 10.8203 56.3953 10.5859V12.7656C56.3953 13.2552 56.4239 13.5651 56.4812 13.6953C56.5437 13.8307 56.6479 13.9375 56.7937 14.0156C56.9448 14.0938 57.2156 14.1328 57.6062 14.1328V14.4219H53.8562V14.1328H54.0515C54.338 14.138 54.5828 14.0833 54.7859 13.9688C54.8849 13.9115 54.9604 13.8177 55.0125 13.6875C55.0698 13.5625 55.0984 13.2396 55.0984 12.7188V5.95312C55.0984 5.48958 55.0776 5.19531 55.0359 5.07031C54.9942 4.94531 54.9265 4.85156 54.8328 4.78906C54.7442 4.72656 54.6218 4.69531 54.4656 4.69531C54.3406 4.69531 54.1817 4.73177 53.989 4.80469L53.8953 4.55469ZM56.3953 5.79688V8.46875C56.3953 9.04688 56.4187 9.42708 56.4656 9.60938C56.5385 9.91146 56.7156 10.1771 56.9968 10.4062C57.2833 10.6354 57.6427 10.75 58.075 10.75C58.5958 10.75 59.0177 10.5469 59.3406 10.1406C59.7625 9.60938 59.9734 8.86198 59.9734 7.89844C59.9734 6.80469 59.7338 5.96354 59.2546 5.375C58.9213 4.96875 58.5255 4.76562 58.0671 4.76562C57.8171 4.76562 57.5698 4.82812 57.325 4.95312C57.1375 5.04688 56.8276 5.32812 56.3953 5.79688ZM65.7196 3.63281C66.8029 3.63281 67.6727 4.04427 68.329 4.86719C68.8863 5.57031 69.1649 6.3776 69.1649 7.28906C69.1649 7.92969 69.0113 8.57812 68.704 9.23438C68.3967 9.89062 67.9722 10.3854 67.4305 10.7188C66.8941 11.0521 66.2951 11.2188 65.6337 11.2188C64.5555 11.2188 63.6988 10.7891 63.0633 9.92969C62.5269 9.20573 62.2587 8.39323 62.2587 7.49219C62.2587 6.83594 62.4201 6.1849 62.743 5.53906C63.0712 4.88802 63.5008 4.40885 64.0321 4.10156C64.5633 3.78906 65.1258 3.63281 65.7196 3.63281ZM65.4774 4.14062C65.2014 4.14062 64.9227 4.22396 64.6415 4.39062C64.3654 4.55208 64.1415 4.83854 63.9696 5.25C63.7977 5.66146 63.7118 6.1901 63.7118 6.83594C63.7118 7.8776 63.9175 8.77604 64.329 9.53125C64.7456 10.2865 65.2925 10.6641 65.9696 10.6641C66.4748 10.6641 66.8915 10.4557 67.2196 10.0391C67.5477 9.6224 67.7118 8.90625 67.7118 7.89062C67.7118 6.61979 67.4383 5.61979 66.8915 4.89062C66.5217 4.39062 66.0503 4.14062 65.4774 4.14062ZM74.5674 7.21875C75.8746 7.48958 76.5283 8.10156 76.5283 9.05469C76.5283 9.70573 76.2549 10.1927 75.708 10.5156C75.1663 10.8385 74.4085 11 73.4345 11H69.9033V10.7109C70.3668 10.7109 70.6585 10.625 70.7783 10.4531C70.9033 10.276 70.9658 9.89844 70.9658 9.32031V5.52344C70.9658 4.96094 70.9371 4.63021 70.8799 4.53125C70.8278 4.43229 70.7418 4.34375 70.622 4.26562C70.5075 4.18229 70.2679 4.14062 69.9033 4.14062V3.84375H73.2002C73.8356 3.84375 74.3486 3.89323 74.7392 3.99219C75.1351 4.09115 75.458 4.28646 75.708 4.57812C75.9632 4.86979 76.0908 5.22396 76.0908 5.64062C76.0908 6.45312 75.583 6.97917 74.5674 7.21875ZM72.2627 7.03906C72.4918 7.04427 72.6299 7.04688 72.6767 7.04688C73.3903 7.04688 73.9059 6.91146 74.2236 6.64062C74.5413 6.36458 74.7002 6.03125 74.7002 5.64062C74.7002 5.1875 74.5387 4.85938 74.2158 4.65625C73.8929 4.45312 73.3772 4.35156 72.6689 4.35156H72.2627V7.03906ZM72.2627 10.3672C72.5231 10.4505 72.833 10.4922 73.1924 10.4922C73.8121 10.4922 74.2731 10.3568 74.5752 10.0859C74.8772 9.8151 75.0283 9.46615 75.0283 9.03906C75.0283 8.5599 74.833 8.19271 74.4424 7.9375C74.0517 7.68229 73.5101 7.55469 72.8174 7.55469C72.6455 7.55469 72.4606 7.5599 72.2627 7.57031V10.3672ZM81.2354 9.96875C80.5011 10.5365 80.0401 10.8646 79.8526 10.9531C79.5714 11.0833 79.2719 11.1484 78.9542 11.1484C78.4594 11.1484 78.0505 10.9792 77.7276 10.6406C77.4099 10.3021 77.2511 9.85677 77.2511 9.30469C77.2511 8.95573 77.3292 8.65365 77.4854 8.39844C77.699 8.04427 78.0688 7.71094 78.5948 7.39844C79.1261 7.08594 80.0063 6.70573 81.2354 6.25781V5.97656C81.2354 5.26302 81.1208 4.77344 80.8917 4.50781C80.6677 4.24219 80.3396 4.10938 79.9073 4.10938C79.5792 4.10938 79.3188 4.19792 79.1261 4.375C78.9281 4.55208 78.8292 4.75521 78.8292 4.98438L78.8448 5.4375C78.8448 5.67708 78.7823 5.86198 78.6573 5.99219C78.5375 6.1224 78.3787 6.1875 78.1807 6.1875C77.988 6.1875 77.8292 6.11979 77.7042 5.98438C77.5844 5.84896 77.5245 5.66406 77.5245 5.42969C77.5245 4.98177 77.7537 4.57031 78.212 4.19531C78.6703 3.82031 79.3136 3.63281 80.1417 3.63281C80.7771 3.63281 81.2979 3.73958 81.7042 3.95312C82.0115 4.11458 82.238 4.36719 82.3839 4.71094C82.4776 4.9349 82.5245 5.39323 82.5245 6.08594V8.51562C82.5245 9.19792 82.5375 9.61719 82.5636 9.77344C82.5896 9.92448 82.6313 10.026 82.6886 10.0781C82.7511 10.1302 82.8214 10.1562 82.8995 10.1562C82.9828 10.1562 83.0557 10.138 83.1182 10.1016C83.2276 10.0339 83.4386 9.84375 83.7511 9.53125V9.96875C83.1677 10.75 82.6104 11.1406 82.0792 11.1406C81.824 11.1406 81.6208 11.0521 81.4698 10.875C81.3188 10.6979 81.2406 10.3958 81.2354 9.96875ZM81.2354 9.46094V6.73438C80.449 7.04688 79.9412 7.26823 79.712 7.39844C79.3005 7.6276 79.0063 7.86719 78.8292 8.11719C78.6521 8.36719 78.5636 8.64062 78.5636 8.9375C78.5636 9.3125 78.6755 9.625 78.8995 9.875C79.1234 10.1198 79.3813 10.2422 79.6729 10.2422C80.0688 10.2422 80.5896 9.98177 81.2354 9.46094ZM90.7513 0.984375V5.17188H93.0794C93.6836 5.17188 94.0872 5.08073 94.2903 4.89844C94.5612 4.65885 94.7122 4.23698 94.7435 3.63281H95.0325V7.32031H94.7435C94.6705 6.80469 94.5976 6.47396 94.5247 6.32812C94.431 6.14583 94.2773 6.0026 94.0638 5.89844C93.8502 5.79427 93.5221 5.74219 93.0794 5.74219H90.7513V9.23438C90.7513 9.70312 90.7721 9.98958 90.8138 10.0938C90.8554 10.1927 90.9283 10.2734 91.0325 10.3359C91.1367 10.3932 91.3346 10.4219 91.6263 10.4219H93.4231C94.0221 10.4219 94.457 10.3802 94.7278 10.2969C94.9987 10.2135 95.2591 10.0495 95.5091 9.80469C95.832 9.48177 96.1627 8.99479 96.5013 8.34375H96.8138L95.8997 11H87.7356V10.7109H88.1106C88.3606 10.7109 88.5976 10.651 88.8216 10.5312C88.9882 10.4479 89.1002 10.3229 89.1575 10.1562C89.22 9.98958 89.2513 9.64844 89.2513 9.13281V2.25C89.2513 1.57812 89.1836 1.16406 89.0481 1.00781C88.8606 0.799479 88.5481 0.695312 88.1106 0.695312H87.7356V0.40625H95.8997L96.0169 2.72656H95.7122C95.6028 2.16927 95.4804 1.78646 95.345 1.57812C95.2148 1.36979 95.0195 1.21094 94.7591 1.10156C94.5507 1.02344 94.1836 0.984375 93.6575 0.984375H90.7513ZM98.9975 9.48438C99.2423 9.48438 99.448 9.57031 99.6147 9.74219C99.7813 9.90885 99.8647 10.112 99.8647 10.3516C99.8647 10.5911 99.7787 10.7969 99.6068 10.9688C99.4402 11.1354 99.2371 11.2188 98.9975 11.2188C98.7579 11.2188 98.5522 11.1354 98.3803 10.9688C98.2136 10.7969 98.1303 10.5911 98.1303 10.3516C98.1303 10.1068 98.2136 9.90104 98.3803 9.73438C98.5522 9.56771 98.7579 9.48438 98.9975 9.48438ZM104.087 6.03906V9.125C104.087 9.79167 104.16 10.2057 104.306 10.3672C104.504 10.5964 104.804 10.7109 105.205 10.7109H105.611V11H101.072V10.7109H101.47C101.918 10.7109 102.238 10.5651 102.431 10.2734C102.535 10.112 102.587 9.72917 102.587 9.125V2.28125C102.587 1.61458 102.517 1.20052 102.376 1.03906C102.173 0.809896 101.871 0.695312 101.47 0.695312H101.072V0.40625H104.955C105.903 0.40625 106.65 0.505208 107.197 0.703125C107.744 0.895833 108.205 1.22396 108.58 1.6875C108.955 2.15104 109.142 2.70052 109.142 3.33594C109.142 4.20052 108.856 4.90365 108.283 5.44531C107.715 5.98698 106.91 6.25781 105.869 6.25781C105.613 6.25781 105.337 6.23958 105.041 6.20312C104.744 6.16667 104.426 6.11198 104.087 6.03906ZM104.087 5.59375C104.363 5.64583 104.608 5.6849 104.822 5.71094C105.035 5.73698 105.218 5.75 105.369 5.75C105.91 5.75 106.376 5.54167 106.767 5.125C107.163 4.70312 107.361 4.15885 107.361 3.49219C107.361 3.03385 107.267 2.60938 107.08 2.21875C106.892 1.82292 106.626 1.52865 106.283 1.33594C105.939 1.13802 105.548 1.03906 105.111 1.03906C104.845 1.03906 104.504 1.08854 104.087 1.1875V5.59375ZM109.521 9.48438C109.766 9.48438 109.972 9.57031 110.138 9.74219C110.305 9.90885 110.388 10.112 110.388 10.3516C110.388 10.5911 110.302 10.7969 110.13 10.9688C109.964 11.1354 109.761 11.2188 109.521 11.2188C109.282 11.2188 109.076 11.1354 108.904 10.9688C108.737 10.7969 108.654 10.5911 108.654 10.3516C108.654 10.1068 108.737 9.90104 108.904 9.73438C109.076 9.56771 109.282 9.48438 109.521 9.48438ZM123.279 14.4531H115.006V13.7969H123.279V14.4531ZM131.088 14.4531H122.814V13.7969H131.088V14.4531ZM138.897 14.4531H130.623V13.7969H138.897V14.4531ZM146.705 14.4531H138.432V13.7969H146.705V14.4531ZM154.514 14.4531H146.24V13.7969H154.514V14.4531ZM162.323 14.4531H154.049V13.7969H162.323V14.4531ZM170.131 14.4531H161.858V13.7969H170.131V14.4531ZM177.94 14.4531H169.667V13.7969H177.94V14.4531ZM185.749 14.4531H177.475V13.7969H185.749V14.4531ZM193.557 14.4531H185.284V13.7969H193.557V14.4531ZM201.366 14.4531H193.093V13.7969H201.366V14.4531ZM209.175 14.4531H200.901V13.7969H209.175V14.4531ZM216.984 14.4531H208.71V13.7969H216.984V14.4531ZM224.792 14.4531H216.519V13.7969H224.792V14.4531ZM232.601 14.4531H224.327V13.7969H232.601V14.4531ZM240.41 14.4531H232.136V13.7969H240.41V14.4531ZM248.218 14.4531H239.945V13.7969H248.218V14.4531ZM256.027 14.4531H247.754V13.7969H256.027V14.4531ZM263.836 14.4531H255.562V13.7969H263.836V14.4531ZM271.644 14.4531H263.371V13.7969H271.644V14.4531ZM279.453 14.4531H271.18V13.7969H279.453V14.4531Z" fill="black"/>
</svg>
