<svg width="463" height="78" viewBox="0 0 463 78" fill="none" xmlns="http://www.w3.org/2000/svg">
<path d="M4.96875 8.0625H4.52344L1.5 4.375L4.52344 0.703125H4.96875L3.0625 4.375L4.96875 8.0625ZM8.5 8.0625H8.04688L4.96875 4.375L8.04688 0.703125H8.5L6.60156 4.375L8.5 8.0625ZM16.9493 11.4531H8.67589V10.7969H16.9493V11.4531ZM24.758 11.4531H16.4846V10.7969H24.758V11.4531ZM28.4573 0.703125H28.9027L31.9261 4.39062L28.9027 8.0625H28.4573L30.3636 4.39062L28.4573 0.703125ZM24.9261 0.703125H25.3792L28.4573 4.39062L25.3792 8.0625H24.9261L26.8245 4.39062L24.9261 0.703125ZM40.3754 11.4531H32.102V10.7969H40.3754V11.4531ZM48.1841 11.4531H39.9107V10.7969H48.1841V11.4531ZM55.9928 11.4531H47.7194V10.7969H55.9928V11.4531ZM63.8015 11.4531H55.5281V10.7969H63.8015V11.4531ZM71.6102 11.4531H63.3368V10.7969H71.6102V11.4531ZM79.4189 11.4531H71.1455V10.7969H79.4189V11.4531ZM87.2276 11.4531H78.9542V10.7969H87.2276V11.4531ZM95.0363 11.4531H86.7629V10.7969H95.0363V11.4531ZM102.845 11.4531H94.5716V10.7969H102.845V11.4531ZM110.654 11.4531H102.38V10.7969H110.654V11.4531ZM118.462 11.4531H110.189V10.7969H118.462V11.4531ZM130.08 11.4531H121.806V10.7969H130.08V11.4531ZM137.889 11.4531H129.615V10.7969H137.889V11.4531ZM145.697 11.4531H137.424V10.7969H145.697V11.4531ZM153.506 11.4531H145.232V10.7969H153.506V11.4531ZM163.155 0.84375L163.444 2.79688H163.1C162.902 2.15104 162.701 1.75 162.498 1.59375C162.3 1.43229 161.879 1.35156 161.233 1.35156H159.717V6.32031C159.717 6.8724 159.746 7.20312 159.803 7.3125C159.86 7.41667 159.949 7.51042 160.069 7.59375C160.194 7.67188 160.438 7.71094 160.803 7.71094V8H157.225V7.71094C157.735 7.70052 158.063 7.6224 158.209 7.47656C158.355 7.32552 158.428 6.9401 158.428 6.32031V2.52344C158.428 2.01823 158.399 1.69531 158.342 1.55469C158.285 1.40885 158.183 1.30469 158.037 1.24219C157.897 1.17969 157.626 1.14583 157.225 1.14062V0.84375H163.155ZM166.948 0.632812C168.031 0.632812 168.901 1.04427 169.557 1.86719C170.114 2.57031 170.393 3.3776 170.393 4.28906C170.393 4.92969 170.239 5.57812 169.932 6.23438C169.625 6.89062 169.2 7.38542 168.659 7.71875C168.122 8.05208 167.523 8.21875 166.862 8.21875C165.784 8.21875 164.927 7.78906 164.291 6.92969C163.755 6.20573 163.487 5.39323 163.487 4.49219C163.487 3.83594 163.648 3.1849 163.971 2.53906C164.299 1.88802 164.729 1.40885 165.26 1.10156C165.791 0.789062 166.354 0.632812 166.948 0.632812ZM166.705 1.14062C166.429 1.14062 166.151 1.22396 165.87 1.39062C165.593 1.55208 165.37 1.83854 165.198 2.25C165.026 2.66146 164.94 3.1901 164.94 3.83594C164.94 4.8776 165.146 5.77604 165.557 6.53125C165.974 7.28646 166.521 7.66406 167.198 7.66406C167.703 7.66406 168.12 7.45573 168.448 7.03906C168.776 6.6224 168.94 5.90625 168.94 4.89062C168.94 3.61979 168.666 2.61979 168.12 1.89062C167.75 1.39062 167.278 1.14062 166.705 1.14062ZM171.764 0.84375H178.077V1.14062C177.722 1.14062 177.485 1.17708 177.366 1.25C177.251 1.31771 177.16 1.40365 177.092 1.50781C177.025 1.61198 176.991 1.95052 176.991 2.52344V6.0625C176.991 6.80729 177.053 7.26562 177.178 7.4375C177.308 7.60417 177.608 7.69531 178.077 7.71094V9.98438H177.78C177.759 9.55729 177.652 9.1849 177.459 8.86719C177.272 8.54948 177.009 8.32552 176.67 8.19531C176.332 8.0651 175.832 8 175.17 8H173.327C172.754 8 172.306 8.04948 171.983 8.14844C171.66 8.2526 171.389 8.46615 171.17 8.78906C170.957 9.11198 170.827 9.51042 170.78 9.98438H170.491V7.71094C170.918 7.69531 171.306 7.52604 171.655 7.20312C172.004 6.88021 172.311 6.2474 172.577 5.30469C172.842 4.36198 172.975 3.4349 172.975 2.52344C172.975 1.6276 172.571 1.16667 171.764 1.14062V0.84375ZM173.491 1.35156V1.78125C173.491 4.33854 173.027 6.24219 172.1 7.49219H174.756C175.235 7.49219 175.512 7.45312 175.584 7.375C175.657 7.29167 175.694 6.99219 175.694 6.47656V1.35156H173.491ZM182.792 6.96875C182.057 7.53646 181.596 7.86458 181.409 7.95312C181.128 8.08333 180.828 8.14844 180.51 8.14844C180.016 8.14844 179.607 7.97917 179.284 7.64062C178.966 7.30208 178.807 6.85677 178.807 6.30469C178.807 5.95573 178.885 5.65365 179.042 5.39844C179.255 5.04427 179.625 4.71094 180.151 4.39844C180.682 4.08594 181.562 3.70573 182.792 3.25781V2.97656C182.792 2.26302 182.677 1.77344 182.448 1.50781C182.224 1.24219 181.896 1.10938 181.463 1.10938C181.135 1.10938 180.875 1.19792 180.682 1.375C180.484 1.55208 180.385 1.75521 180.385 1.98438L180.401 2.4375C180.401 2.67708 180.338 2.86198 180.213 2.99219C180.094 3.1224 179.935 3.1875 179.737 3.1875C179.544 3.1875 179.385 3.11979 179.26 2.98438C179.141 2.84896 179.081 2.66406 179.081 2.42969C179.081 1.98177 179.31 1.57031 179.768 1.19531C180.226 0.820312 180.87 0.632812 181.698 0.632812C182.333 0.632812 182.854 0.739583 183.26 0.953125C183.568 1.11458 183.794 1.36719 183.94 1.71094C184.034 1.9349 184.081 2.39323 184.081 3.08594V5.51562C184.081 6.19792 184.094 6.61719 184.12 6.77344C184.146 6.92448 184.187 7.02604 184.245 7.07812C184.307 7.13021 184.378 7.15625 184.456 7.15625C184.539 7.15625 184.612 7.13802 184.674 7.10156C184.784 7.03385 184.995 6.84375 185.307 6.53125V6.96875C184.724 7.75 184.167 8.14062 183.635 8.14062C183.38 8.14062 183.177 8.05208 183.026 7.875C182.875 7.69792 182.797 7.39583 182.792 6.96875ZM182.792 6.46094V3.73438C182.005 4.04688 181.497 4.26823 181.268 4.39844C180.857 4.6276 180.562 4.86719 180.385 5.11719C180.208 5.36719 180.12 5.64062 180.12 5.9375C180.12 6.3125 180.232 6.625 180.456 6.875C180.68 7.11979 180.937 7.24219 181.229 7.24219C181.625 7.24219 182.146 6.98177 182.792 6.46094ZM5.96875 33.1328V33.4219C5.18229 33.026 4.52604 32.5625 4 32.0312C3.25 31.276 2.67188 30.3854 2.26562 29.3594C1.85938 28.3333 1.65625 27.2682 1.65625 26.1641C1.65625 24.5495 2.05469 23.0781 2.85156 21.75C3.64844 20.4167 4.6875 19.4635 5.96875 18.8906V19.2188C5.32812 19.5729 4.80208 20.0573 4.39062 20.6719C3.97917 21.2865 3.67188 22.0651 3.46875 23.0078C3.26562 23.9505 3.16406 24.9349 3.16406 25.9609C3.16406 27.0755 3.25 28.0885 3.42188 29C3.55729 29.7188 3.72135 30.2943 3.91406 30.7266C4.10677 31.1641 4.36458 31.5833 4.6875 31.9844C5.01562 32.3854 5.44271 32.7682 5.96875 33.1328ZM11.9649 23.3516H8.8712V28.3203C8.8712 28.8724 8.89984 29.2031 8.95714 29.3125C9.01443 29.4167 9.10297 29.5104 9.22276 29.5938C9.34776 29.6719 9.59255 29.7109 9.95714 29.7109V30H6.4962V29.7109C6.95974 29.7109 7.25662 29.6276 7.38682 29.4609C7.51703 29.2891 7.58214 28.9089 7.58214 28.3203V24.5234C7.58214 23.9661 7.55349 23.638 7.4962 23.5391C7.43891 23.4349 7.35037 23.3438 7.23057 23.2656C7.11078 23.1823 6.86599 23.1406 6.4962 23.1406V22.8438H14.3399V23.1406C13.991 23.1406 13.7566 23.1771 13.6368 23.25C13.517 23.3177 13.4233 23.4036 13.3556 23.5078C13.2879 23.612 13.254 23.9505 13.254 24.5234V28.3203C13.254 28.8724 13.2827 29.2031 13.3399 29.3125C13.3972 29.4167 13.4858 29.5104 13.6056 29.5938C13.7306 29.6719 13.9754 29.7109 14.3399 29.7109V30H10.879V29.7109C11.3113 29.7109 11.6004 29.6328 11.7462 29.4766C11.892 29.3151 11.9649 28.9297 11.9649 28.3203V23.3516ZM14.4924 23.5547L16.6955 22.6641H16.9924V24.3359C17.3622 23.7057 17.732 23.2656 18.1018 23.0156C18.4768 22.7604 18.87 22.6328 19.2815 22.6328C20.0002 22.6328 20.5992 22.9141 21.0783 23.4766C21.6669 24.1641 21.9611 25.0599 21.9611 26.1641C21.9611 27.3984 21.607 28.4193 20.8986 29.2266C20.3153 29.888 19.5809 30.2188 18.6955 30.2188C18.3101 30.2188 17.9768 30.1641 17.6955 30.0547C17.4872 29.9766 17.2528 29.8203 16.9924 29.5859V31.7656C16.9924 32.2552 17.021 32.5651 17.0783 32.6953C17.1408 32.8307 17.245 32.9375 17.3908 33.0156C17.5419 33.0938 17.8127 33.1328 18.2033 33.1328V33.4219H14.4533V33.1328H14.6486C14.9351 33.138 15.1799 33.0833 15.383 32.9688C15.482 32.9115 15.5575 32.8177 15.6096 32.6875C15.6669 32.5625 15.6955 32.2396 15.6955 31.7188V24.9531C15.6955 24.4896 15.6747 24.1953 15.633 24.0703C15.5914 23.9453 15.5236 23.8516 15.4299 23.7891C15.3414 23.7266 15.219 23.6953 15.0627 23.6953C14.9377 23.6953 14.7789 23.7318 14.5861 23.8047L14.4924 23.5547ZM16.9924 24.7969V27.4688C16.9924 28.0469 17.0158 28.4271 17.0627 28.6094C17.1356 28.9115 17.3127 29.1771 17.594 29.4062C17.8804 29.6354 18.2398 29.75 18.6721 29.75C19.1929 29.75 19.6148 29.5469 19.9377 29.1406C20.3596 28.6094 20.5705 27.862 20.5705 26.8984C20.5705 25.8047 20.3309 24.9635 19.8518 24.375C19.5184 23.9688 19.1226 23.7656 18.6643 23.7656C18.4143 23.7656 18.1669 23.8281 17.9221 23.9531C17.7346 24.0469 17.4247 24.3281 16.9924 24.7969ZM24.0198 25.5391C24.0146 26.6016 24.2725 27.4349 24.7933 28.0391C25.3141 28.6432 25.9261 28.9453 26.6292 28.9453C27.098 28.9453 27.5042 28.8177 27.848 28.5625C28.1969 28.3021 28.4886 27.8594 28.723 27.2344L28.9652 27.3906C28.8558 28.1042 28.5381 28.7552 28.012 29.3438C27.486 29.9271 26.8271 30.2188 26.0355 30.2188C25.1761 30.2188 24.4391 29.8854 23.8245 29.2188C23.2152 28.5469 22.9105 27.6458 22.9105 26.5156C22.9105 25.2917 23.223 24.3385 23.848 23.6562C24.4782 22.9688 25.2672 22.625 26.2152 22.625C27.0172 22.625 27.6761 22.8906 28.1917 23.4219C28.7073 23.9479 28.9652 24.6536 28.9652 25.5391H24.0198ZM24.0198 25.0859H27.3323C27.3063 24.6276 27.2516 24.3047 27.1683 24.1172C27.0381 23.8255 26.8428 23.5964 26.5823 23.4297C26.3271 23.263 26.0589 23.1797 25.7777 23.1797C25.3454 23.1797 24.9573 23.349 24.6136 23.6875C24.2751 24.0208 24.0771 24.487 24.0198 25.0859ZM30.4926 22.8438H36.8051V23.1406C36.4509 23.1406 36.214 23.1771 36.0942 23.25C35.9796 23.3177 35.8884 23.4036 35.8207 23.5078C35.753 23.612 35.7192 23.9505 35.7192 24.5234V28.0625C35.7192 28.8073 35.7817 29.2656 35.9067 29.4375C36.0369 29.6042 36.3364 29.6953 36.8051 29.7109V31.9844H36.5082C36.4874 31.5573 36.3806 31.1849 36.1879 30.8672C36.0004 30.5495 35.7374 30.3255 35.3989 30.1953C35.0603 30.0651 34.5603 30 33.8989 30H32.0551C31.4822 30 31.0343 30.0495 30.7114 30.1484C30.3884 30.2526 30.1176 30.4661 29.8989 30.7891C29.6853 31.112 29.5551 31.5104 29.5082 31.9844H29.2192V29.7109C29.6463 29.6953 30.0343 29.526 30.3832 29.2031C30.7322 28.8802 31.0395 28.2474 31.3051 27.3047C31.5707 26.362 31.7035 25.4349 31.7035 24.5234C31.7035 23.6276 31.2999 23.1667 30.4926 23.1406V22.8438ZM32.2192 23.3516V23.7812C32.2192 26.3385 31.7556 28.2422 30.8285 29.4922H33.4848C33.964 29.4922 34.24 29.4531 34.3129 29.375C34.3858 29.2917 34.4223 28.9922 34.4223 28.4766V23.3516H32.2192ZM43.5435 27.2812C43.3508 28.224 42.9732 28.9505 42.4107 29.4609C41.8482 29.9661 41.2258 30.2188 40.5435 30.2188C39.731 30.2188 39.0227 29.8776 38.4185 29.1953C37.8143 28.513 37.5122 27.5911 37.5122 26.4297C37.5122 25.3047 37.8456 24.3906 38.5122 23.6875C39.1841 22.9844 39.9888 22.6328 40.9263 22.6328C41.6294 22.6328 42.2076 22.8203 42.6607 23.1953C43.1138 23.5651 43.3404 23.9505 43.3404 24.3516C43.3404 24.5495 43.2753 24.7109 43.1451 24.8359C43.0201 24.9557 42.843 25.0156 42.6138 25.0156C42.3065 25.0156 42.0747 24.9167 41.9185 24.7188C41.83 24.6094 41.7701 24.401 41.7388 24.0938C41.7128 23.7865 41.6086 23.5521 41.4263 23.3906C41.244 23.2344 40.9914 23.1562 40.6685 23.1562C40.1477 23.1562 39.7284 23.349 39.4107 23.7344C38.9888 24.2448 38.7779 24.9193 38.7779 25.7578C38.7779 26.612 38.9862 27.3672 39.4029 28.0234C39.8247 28.6745 40.3925 29 41.106 29C41.6164 29 42.0747 28.8255 42.481 28.4766C42.7675 28.237 43.0461 27.8021 43.3169 27.1719L43.5435 27.2812ZM44.2741 22.8438H50.4616L50.7741 24.7812H50.4225C50.36 24.3906 50.2558 24.0885 50.11 23.875C49.9642 23.6615 49.7975 23.5208 49.61 23.4531C49.4225 23.3854 49.1022 23.3516 48.6491 23.3516H48.0241V28.3203C48.0241 28.8516 48.0553 29.1901 48.1178 29.3359C48.1855 29.4766 48.2923 29.5703 48.4381 29.6172C48.584 29.6641 48.9173 29.6953 49.4381 29.7109V30H45.5475V29.7109C46.0475 29.7005 46.3678 29.6198 46.5084 29.4688C46.6543 29.3177 46.7272 28.9349 46.7272 28.3203V23.3516H46.0866C45.6387 23.3516 45.334 23.3802 45.1725 23.4375C45.011 23.4896 44.8548 23.6198 44.7038 23.8281C44.5579 24.0312 44.4329 24.349 44.3288 24.7812H43.9772L44.2741 22.8438ZM55.45 28.9688C54.7156 29.5365 54.2546 29.8646 54.0671 29.9531C53.7859 30.0833 53.4864 30.1484 53.1687 30.1484C52.6739 30.1484 52.2651 29.9792 51.9421 29.6406C51.6244 29.3021 51.4656 28.8568 51.4656 28.3047C51.4656 27.9557 51.5437 27.6536 51.7 27.3984C51.9135 27.0443 52.2833 26.7109 52.8093 26.3984C53.3406 26.0859 54.2208 25.7057 55.45 25.2578V24.9766C55.45 24.263 55.3354 23.7734 55.1062 23.5078C54.8823 23.2422 54.5541 23.1094 54.1218 23.1094C53.7937 23.1094 53.5333 23.1979 53.3406 23.375C53.1427 23.5521 53.0437 23.7552 53.0437 23.9844L53.0593 24.4375C53.0593 24.6771 52.9968 24.862 52.8718 24.9922C52.752 25.1224 52.5932 25.1875 52.3953 25.1875C52.2026 25.1875 52.0437 25.1198 51.9187 24.9844C51.7989 24.849 51.739 24.6641 51.739 24.4297C51.739 23.9818 51.9682 23.5703 52.4265 23.1953C52.8849 22.8203 53.5281 22.6328 54.3562 22.6328C54.9916 22.6328 55.5125 22.7396 55.9187 22.9531C56.226 23.1146 56.4526 23.3672 56.5984 23.7109C56.6921 23.9349 56.739 24.3932 56.739 25.0859V27.5156C56.739 28.1979 56.752 28.6172 56.7781 28.7734C56.8041 28.9245 56.8458 29.026 56.9031 29.0781C56.9656 29.1302 57.0359 29.1562 57.114 29.1562C57.1974 29.1562 57.2703 29.138 57.3328 29.1016C57.4421 29.0339 57.6531 28.8438 57.9656 28.5312V28.9688C57.3823 29.75 56.825 30.1406 56.2937 30.1406C56.0385 30.1406 55.8354 30.0521 55.6843 29.875C55.5333 29.6979 55.4552 29.3958 55.45 28.9688ZM55.45 28.4609V25.7344C54.6635 26.0469 54.1557 26.2682 53.9265 26.3984C53.5151 26.6276 53.2208 26.8672 53.0437 27.1172C52.8666 27.3672 52.7781 27.6406 52.7781 27.9375C52.7781 28.3125 52.8901 28.625 53.114 28.875C53.338 29.1198 53.5958 29.2422 53.8875 29.2422C54.2833 29.2422 54.8041 28.9818 55.45 28.4609ZM62.8524 26.2188C64.1597 26.4896 64.8133 27.1016 64.8133 28.0547C64.8133 28.7057 64.5399 29.1927 63.993 29.5156C63.4514 29.8385 62.6936 30 61.7196 30H58.1883V29.7109C58.6519 29.7109 58.9436 29.625 59.0633 29.4531C59.1883 29.276 59.2508 28.8984 59.2508 28.3203V24.5234C59.2508 23.9609 59.2222 23.6302 59.1649 23.5312C59.1128 23.4323 59.0269 23.3438 58.9071 23.2656C58.7925 23.1823 58.5529 23.1406 58.1883 23.1406V22.8438H61.4852C62.1206 22.8438 62.6337 22.8932 63.0243 22.9922C63.4201 23.0911 63.743 23.2865 63.993 23.5781C64.2482 23.8698 64.3758 24.224 64.3758 24.6406C64.3758 25.4531 63.868 25.9792 62.8524 26.2188ZM60.5477 26.0391C60.7769 26.0443 60.9149 26.0469 60.9618 26.0469C61.6753 26.0469 62.1909 25.9115 62.5087 25.6406C62.8264 25.3646 62.9852 25.0312 62.9852 24.6406C62.9852 24.1875 62.8238 23.8594 62.5008 23.6562C62.1779 23.4531 61.6623 23.3516 60.954 23.3516H60.5477V26.0391ZM60.5477 29.3672C60.8081 29.4505 61.118 29.4922 61.4774 29.4922C62.0972 29.4922 62.5581 29.3568 62.8602 29.0859C63.1623 28.8151 63.3133 28.4661 63.3133 28.0391C63.3133 27.5599 63.118 27.1927 62.7274 26.9375C62.3368 26.6823 61.7951 26.5547 61.1024 26.5547C60.9305 26.5547 60.7456 26.5599 60.5477 26.5703V29.3672ZM67.9189 27.7969L71.0127 24.2188C71.0022 23.8177 70.9267 23.5391 70.7861 23.3828C70.6455 23.2266 70.4033 23.1458 70.0595 23.1406V22.8438H73.3877V23.1406C73.0387 23.1406 72.8043 23.1771 72.6845 23.25C72.5647 23.3177 72.471 23.4036 72.4033 23.5078C72.3356 23.612 72.3017 23.9505 72.3017 24.5234V28.3203C72.3017 28.8724 72.3304 29.2031 72.3877 29.3125C72.445 29.4167 72.5335 29.5104 72.6533 29.5938C72.7783 29.6719 73.0231 29.7109 73.3877 29.7109V30H69.9267V29.7109C70.359 29.7109 70.6481 29.6328 70.7939 29.4766C70.9397 29.3151 71.0127 28.9297 71.0127 28.3203V24.9531L67.9189 28.5391C67.9293 28.9818 67.9918 29.2865 68.1064 29.4531C68.221 29.6198 68.4684 29.7057 68.8486 29.7109V30H65.5439V29.7109C66.0075 29.7109 66.3043 29.6276 66.4345 29.4609C66.5647 29.2891 66.6299 28.9089 66.6299 28.3203V24.5234C66.6299 23.9661 66.6012 23.638 66.5439 23.5391C66.4866 23.4349 66.3981 23.3438 66.2783 23.2656C66.1585 23.1823 65.9137 23.1406 65.5439 23.1406V22.8438H69.0049V23.1406C68.6559 23.1406 68.4215 23.1771 68.3017 23.25C68.1819 23.3177 68.0882 23.4036 68.0205 23.5078C67.9528 23.612 67.9189 23.9505 67.9189 24.5234V27.7969ZM73.9464 22.8438H80.1339L80.4464 24.7812H80.0948C80.0323 24.3906 79.9281 24.0885 79.7823 23.875C79.6365 23.6615 79.4698 23.5208 79.2823 23.4531C79.0948 23.3854 78.7745 23.3516 78.3214 23.3516H77.6964V28.3203C77.6964 28.8516 77.7276 29.1901 77.7901 29.3359C77.8578 29.4766 77.9646 29.5703 78.1104 29.6172C78.2563 29.6641 78.5896 29.6953 79.1104 29.7109V30H75.2198V29.7109C75.7198 29.7005 76.0401 29.6198 76.1807 29.4688C76.3266 29.3177 76.3995 28.9349 76.3995 28.3203V23.3516H75.7589C75.3109 23.3516 75.0063 23.3802 74.8448 23.4375C74.6833 23.4896 74.5271 23.6198 74.3761 23.8281C74.2302 24.0312 74.1052 24.349 74.0011 24.7812H73.6495L73.9464 22.8438ZM82.0676 25.5391C82.0624 26.6016 82.3202 27.4349 82.841 28.0391C83.3618 28.6432 83.9738 28.9453 84.6769 28.9453C85.1457 28.9453 85.5519 28.8177 85.8957 28.5625C86.2446 28.3021 86.5363 27.8594 86.7707 27.2344L87.0129 27.3906C86.9035 28.1042 86.5858 28.7552 86.0598 29.3438C85.5337 29.9271 84.8749 30.2188 84.0832 30.2188C83.2238 30.2188 82.4868 29.8854 81.8723 29.2188C81.2629 28.5469 80.9582 27.6458 80.9582 26.5156C80.9582 25.2917 81.2707 24.3385 81.8957 23.6562C82.5259 22.9688 83.315 22.625 84.2629 22.625C85.065 22.625 85.7238 22.8906 86.2394 23.4219C86.7551 23.9479 87.0129 24.6536 87.0129 25.5391H82.0676ZM82.0676 25.0859H85.3801C85.354 24.6276 85.2993 24.3047 85.216 24.1172C85.0858 23.8255 84.8905 23.5964 84.6301 23.4297C84.3749 23.263 84.1066 23.1797 83.8254 23.1797C83.3931 23.1797 83.0051 23.349 82.6613 23.6875C82.3228 24.0208 82.1249 24.487 82.0676 25.0859ZM88.5169 22.8438H94.9153V23.1406C94.5612 23.1406 94.3242 23.1771 94.2044 23.25C94.0898 23.3177 93.9987 23.4036 93.931 23.5078C93.8632 23.612 93.8294 23.9505 93.8294 24.5234V28.3203C93.8294 28.8724 93.858 29.2031 93.9153 29.3125C93.9726 29.4167 94.0612 29.5104 94.181 29.5938C94.306 29.6719 94.5507 29.7109 94.9153 29.7109V30H91.2122V29.7109C91.6132 29.7109 91.8893 29.6901 92.0403 29.6484C92.1966 29.6068 92.319 29.5078 92.4075 29.3516C92.4961 29.1901 92.5403 28.8464 92.5403 28.3203V23.3516H90.1575V26.3672C90.1575 27.5078 90.1054 28.3099 90.0013 28.7734C89.9023 29.2318 89.7018 29.5729 89.3997 29.7969C89.1028 30.0156 88.7617 30.125 88.3763 30.125C87.7096 30.125 87.3763 29.849 87.3763 29.2969C87.3763 29.1094 87.4283 28.9557 87.5325 28.8359C87.6419 28.7161 87.7825 28.6562 87.9544 28.6562C88.1367 28.6562 88.306 28.7318 88.4622 28.8828C88.6653 29.0807 88.819 29.1797 88.9231 29.1797C89.1575 29.1797 89.3268 28.9844 89.431 28.5938C89.5403 28.1979 89.595 27.5078 89.595 26.5234V24.9453C89.595 24.1328 89.5351 23.638 89.4153 23.4609C89.3007 23.2839 89.0013 23.1771 88.5169 23.1406V22.8438ZM97.81 26.0312L98.7006 26.0156C100.826 26.0156 101.888 26.6719 101.888 27.9844C101.888 28.5938 101.628 29.0833 101.107 29.4531C100.591 29.8177 99.8464 30 98.8725 30H95.435V29.7109C95.8985 29.7109 96.1954 29.6276 96.3256 29.4609C96.4558 29.2891 96.5209 28.9089 96.5209 28.3203V24.5234C96.5209 23.9661 96.4923 23.638 96.435 23.5391C96.3777 23.4349 96.2891 23.3438 96.1693 23.2656C96.0496 23.1823 95.8048 23.1406 95.435 23.1406V22.8438H99.1772V23.1406C98.6615 23.1406 98.3438 23.1719 98.224 23.2344C98.1042 23.2917 98.0053 23.3698 97.9272 23.4688C97.849 23.5625 97.81 23.9141 97.81 24.5234V26.0312ZM97.81 29.3828C98.086 29.4557 98.3621 29.4922 98.6381 29.4922C99.1589 29.4922 99.5808 29.3542 99.9037 29.0781C100.232 28.8021 100.396 28.4531 100.396 28.0312C100.396 27.0312 99.7006 26.5312 98.31 26.5312C98.1902 26.5312 98.0235 26.5339 97.81 26.5391V29.3828ZM102.541 19.2188V18.8906C103.332 19.2812 103.991 19.7422 104.517 20.2734C105.262 21.0339 105.837 21.9271 106.244 22.9531C106.65 23.974 106.853 25.0391 106.853 26.1484C106.853 27.763 106.455 29.2344 105.658 30.5625C104.866 31.8958 103.827 32.849 102.541 33.4219V33.1328C103.181 32.7734 103.707 32.2865 104.119 31.6719C104.535 31.0625 104.843 30.2865 105.041 29.3438C105.244 28.3958 105.345 27.4089 105.345 26.3828C105.345 25.2734 105.259 24.2604 105.087 23.3438C104.957 22.625 104.793 22.0495 104.595 21.6172C104.403 21.1849 104.145 20.7682 103.822 20.3672C103.499 19.9661 103.072 19.5833 102.541 19.2188ZM109.576 22.625C109.815 22.625 110.019 22.7109 110.185 22.8828C110.357 23.0495 110.443 23.2526 110.443 23.4922C110.443 23.7318 110.357 23.9375 110.185 24.1094C110.019 24.276 109.815 24.3594 109.576 24.3594C109.336 24.3594 109.13 24.276 108.959 24.1094C108.792 23.9375 108.709 23.7318 108.709 23.4922C108.709 23.2526 108.792 23.0495 108.959 22.8828C109.13 22.7109 109.336 22.625 109.576 22.625ZM109.56 28.4766C109.805 28.4766 110.011 28.5625 110.177 28.7344C110.349 28.9062 110.435 29.112 110.435 29.3516C110.435 29.5911 110.349 29.7969 110.177 29.9688C110.005 30.1354 109.8 30.2188 109.56 30.2188C109.321 30.2188 109.115 30.1354 108.943 29.9688C108.776 29.7969 108.693 29.5911 108.693 29.3516C108.693 29.112 108.776 28.9062 108.943 28.7344C109.115 28.5625 109.321 28.4766 109.56 28.4766ZM9.14062 55.4531H0.867188V54.7969H9.14062V55.4531ZM16.9493 55.4531H8.67589V54.7969H16.9493V55.4531ZM24.758 55.4531H16.4846V54.7969H24.758V55.4531ZM32.5667 55.4531H24.2933V54.7969H32.5667V55.4531ZM40.3754 55.4531H32.102V54.7969H40.3754V55.4531ZM48.1841 55.4531H39.9107V54.7969H48.1841V55.4531ZM55.9928 55.4531H47.7194V54.7969H55.9928V55.4531ZM63.8015 55.4531H55.5281V54.7969H63.8015V55.4531ZM71.6102 55.4531H63.3368V54.7969H71.6102V55.4531ZM79.4189 55.4531H71.1455V54.7969H79.4189V55.4531ZM87.2276 55.4531H78.9542V54.7969H87.2276V55.4531ZM95.0363 55.4531H86.7629V54.7969H95.0363V55.4531ZM102.845 55.4531H94.5716V54.7969H102.845V55.4531ZM110.654 55.4531H102.38V54.7969H110.654V55.4531ZM118.462 55.4531H110.189V54.7969H118.462V55.4531ZM126.271 55.4531H117.998V54.7969H126.271V55.4531ZM130.424 40.8906L126.588 52.2188H125.963L129.799 40.8906H130.424ZM138.342 55.4531H130.068V54.7969H138.342V55.4531ZM146.15 55.4531H137.877V54.7969H146.15V55.4531ZM153.959 55.4531H145.686V54.7969H153.959V55.4531ZM161.768 55.4531H153.494V54.7969H161.768V55.4531ZM169.576 55.4531H161.303V54.7969H169.576V55.4531ZM177.385 55.4531H169.112V54.7969H177.385V55.4531ZM185.194 55.4531H176.92V54.7969H185.194V55.4531ZM193.003 55.4531H184.729V54.7969H193.003V55.4531ZM200.811 55.4531H192.538V54.7969H200.811V55.4531ZM208.62 55.4531H200.346V54.7969H208.62V55.4531ZM216.429 55.4531H208.155V54.7969H216.429V55.4531ZM224.237 55.4531H215.964V54.7969H224.237V55.4531ZM232.046 55.4531H223.773V54.7969H232.046V55.4531ZM239.855 55.4531H231.581V54.7969H239.855V55.4531ZM247.663 55.4531H239.39V54.7969H247.663V55.4531ZM255.472 55.4531H247.199V54.7969H255.472V55.4531ZM263.281 55.4531H255.007V54.7969H263.281V55.4531ZM271.09 55.4531H262.816V54.7969H271.09V55.4531ZM278.898 55.4531H270.625V54.7969H278.898V55.4531ZM286.707 55.4531H278.433V54.7969H286.707V55.4531ZM294.516 55.4531H286.242V54.7969H294.516V55.4531ZM302.324 55.4531H294.051V54.7969H302.324V55.4531ZM310.133 55.4531H301.86V54.7969H310.133V55.4531ZM317.942 55.4531H309.668V54.7969H317.942V55.4531ZM325.75 55.4531H317.477V54.7969H325.75V55.4531ZM333.559 55.4531H325.286V54.7969H333.559V55.4531ZM341.368 55.4531H333.094V54.7969H341.368V55.4531ZM349.177 55.4531H340.903V54.7969H349.177V55.4531ZM356.985 55.4531H348.712V54.7969H356.985V55.4531ZM364.794 55.4531H356.52V54.7969H364.794V55.4531ZM372.603 55.4531H364.329V54.7969H372.603V55.4531ZM380.411 55.4531H372.138V54.7969H380.411V55.4531ZM388.22 55.4531H379.947V54.7969H388.22V55.4531ZM396.029 55.4531H387.755V54.7969H396.029V55.4531ZM403.837 55.4531H395.564V54.7969H403.837V55.4531ZM411.646 55.4531H403.373V54.7969H411.646V55.4531ZM419.455 55.4531H411.181V54.7969H419.455V55.4531ZM427.264 55.4531H418.99V54.7969H427.264V55.4531ZM435.072 55.4531H426.799V54.7969H435.072V55.4531ZM442.881 55.4531H434.607V54.7969H442.881V55.4531ZM450.69 55.4531H442.416V54.7969H450.69V55.4531ZM458.498 55.4531H450.225V54.7969H458.498V55.4531ZM462.651 40.8906L458.815 52.2188H458.19L462.026 40.8906H462.651ZM5.96875 77.1328V77.4219C5.18229 77.026 4.52604 76.5625 4 76.0312C3.25 75.276 2.67188 74.3854 2.26562 73.3594C1.85938 72.3333 1.65625 71.2682 1.65625 70.1641C1.65625 68.5495 2.05469 67.0781 2.85156 65.75C3.64844 64.4167 4.6875 63.4635 5.96875 62.8906V63.2188C5.32812 63.5729 4.80208 64.0573 4.39062 64.6719C3.97917 65.2865 3.67188 66.0651 3.46875 67.0078C3.26562 67.9505 3.16406 68.9349 3.16406 69.9609C3.16406 71.0755 3.25 72.0885 3.42188 73C3.55729 73.7188 3.72135 74.2943 3.91406 74.7266C4.10677 75.1641 4.36458 75.5833 4.6875 75.9844C5.01562 76.3854 5.44271 76.7682 5.96875 77.1328ZM11.9649 67.3516H8.8712V72.3203C8.8712 72.8724 8.89984 73.2031 8.95714 73.3125C9.01443 73.4167 9.10297 73.5104 9.22276 73.5938C9.34776 73.6719 9.59255 73.7109 9.95714 73.7109V74H6.4962V73.7109C6.95974 73.7109 7.25662 73.6276 7.38682 73.4609C7.51703 73.2891 7.58214 72.9089 7.58214 72.3203V68.5234C7.58214 67.9661 7.55349 67.638 7.4962 67.5391C7.43891 67.4349 7.35037 67.3438 7.23057 67.2656C7.11078 67.1823 6.86599 67.1406 6.4962 67.1406V66.8438H14.3399V67.1406C13.991 67.1406 13.7566 67.1771 13.6368 67.25C13.517 67.3177 13.4233 67.4036 13.3556 67.5078C13.2879 67.612 13.254 67.9505 13.254 68.5234V72.3203C13.254 72.8724 13.2827 73.2031 13.3399 73.3125C13.3972 73.4167 13.4858 73.5104 13.6056 73.5938C13.7306 73.6719 13.9754 73.7109 14.3399 73.7109V74H10.879V73.7109C11.3113 73.7109 11.6004 73.6328 11.7462 73.4766C11.892 73.3151 11.9649 72.9297 11.9649 72.3203V67.3516ZM18.508 66.6328C19.5914 66.6328 20.4611 67.0443 21.1174 67.8672C21.6747 68.5703 21.9533 69.3776 21.9533 70.2891C21.9533 70.9297 21.7997 71.5781 21.4924 72.2344C21.1851 72.8906 20.7606 73.3854 20.219 73.7188C19.6825 74.0521 19.0835 74.2188 18.4221 74.2188C17.344 74.2188 16.4872 73.7891 15.8518 72.9297C15.3153 72.2057 15.0471 71.3932 15.0471 70.4922C15.0471 69.8359 15.2085 69.1849 15.5315 68.5391C15.8596 67.888 16.2893 67.4089 16.8205 67.1016C17.3518 66.7891 17.9143 66.6328 18.508 66.6328ZM18.2658 67.1406C17.9898 67.1406 17.7111 67.224 17.4299 67.3906C17.1539 67.5521 16.9299 67.8385 16.758 68.25C16.5861 68.6615 16.5002 69.1901 16.5002 69.8359C16.5002 70.8776 16.7059 71.776 17.1174 72.5312C17.5341 73.2865 18.0809 73.6641 18.758 73.6641C19.2632 73.6641 19.6799 73.4557 20.008 73.0391C20.3361 72.6224 20.5002 71.9062 20.5002 70.8906C20.5002 69.6198 20.2268 68.6198 19.6799 67.8906C19.3101 67.3906 18.8388 67.1406 18.2658 67.1406ZM23.3245 66.8438H29.637V67.1406C29.2829 67.1406 29.0459 67.1771 28.9261 67.25C28.8115 67.3177 28.7204 67.4036 28.6527 67.5078C28.585 67.612 28.5511 67.9505 28.5511 68.5234V72.0625C28.5511 72.8073 28.6136 73.2656 28.7386 73.4375C28.8688 73.6042 29.1683 73.6953 29.637 73.7109V75.9844H29.3402C29.3193 75.5573 29.2126 75.1849 29.0198 74.8672C28.8323 74.5495 28.5693 74.3255 28.2308 74.1953C27.8922 74.0651 27.3922 74 26.7308 74H24.887C24.3141 74 23.8662 74.0495 23.5433 74.1484C23.2204 74.2526 22.9495 74.4661 22.7308 74.7891C22.5172 75.112 22.387 75.5104 22.3402 75.9844H22.0511V73.7109C22.4782 73.6953 22.8662 73.526 23.2152 73.2031C23.5641 72.8802 23.8714 72.2474 24.137 71.3047C24.4027 70.362 24.5355 69.4349 24.5355 68.5234C24.5355 67.6276 24.1318 67.1667 23.3245 67.1406V66.8438ZM25.0511 67.3516V67.7812C25.0511 70.3385 24.5876 72.2422 23.6605 73.4922H26.3167C26.7959 73.4922 27.0719 73.4531 27.1448 73.375C27.2178 73.2917 27.2542 72.9922 27.2542 72.4766V67.3516H25.0511ZM35.6254 67.3516H32.5317V72.3203C32.5317 72.8724 32.5603 73.2031 32.6176 73.3125C32.6749 73.4167 32.7634 73.5104 32.8832 73.5938C33.0082 73.6719 33.253 73.7109 33.6176 73.7109V74H30.1567V73.7109C30.6202 73.7109 30.9171 73.6276 31.0473 73.4609C31.1775 73.2891 31.2426 72.9089 31.2426 72.3203V68.5234C31.2426 67.9661 31.214 67.638 31.1567 67.5391C31.0994 67.4349 31.0108 67.3438 30.891 67.2656C30.7713 67.1823 30.5265 67.1406 30.1567 67.1406V66.8438H38.0004V67.1406C37.6515 67.1406 37.4171 67.1771 37.2973 67.25C37.1775 67.3177 37.0838 67.4036 37.016 67.5078C36.9483 67.612 36.9145 67.9505 36.9145 68.5234V72.3203C36.9145 72.8724 36.9431 73.2031 37.0004 73.3125C37.0577 73.4167 37.1463 73.5104 37.266 73.5938C37.391 73.6719 37.6358 73.7109 38.0004 73.7109V74H34.5395V73.7109C34.9718 73.7109 35.2608 73.6328 35.4067 73.4766C35.5525 73.3151 35.6254 72.9297 35.6254 72.3203V67.3516ZM40.9029 71.7969L43.9966 68.2188C43.9862 67.8177 43.9107 67.5391 43.7701 67.3828C43.6294 67.2266 43.3872 67.1458 43.0435 67.1406V66.8438H46.3716V67.1406C46.0227 67.1406 45.7883 67.1771 45.6685 67.25C45.5487 67.3177 45.455 67.4036 45.3872 67.5078C45.3195 67.612 45.2857 67.9505 45.2857 68.5234V72.3203C45.2857 72.8724 45.3143 73.2031 45.3716 73.3125C45.4289 73.4167 45.5175 73.5104 45.6372 73.5938C45.7622 73.6719 46.007 73.7109 46.3716 73.7109V74H42.9107V73.7109C43.343 73.7109 43.632 73.6328 43.7779 73.4766C43.9237 73.3151 43.9966 72.9297 43.9966 72.3203V68.9531L40.9029 72.5391C40.9133 72.9818 40.9758 73.2865 41.0904 73.4531C41.205 73.6198 41.4523 73.7057 41.8326 73.7109V74H38.5279V73.7109C38.9914 73.7109 39.2883 73.6276 39.4185 73.4609C39.5487 73.2891 39.6138 72.9089 39.6138 72.3203V68.5234C39.6138 67.9661 39.5852 67.638 39.5279 67.5391C39.4706 67.4349 39.382 67.3438 39.2622 67.2656C39.1425 67.1823 38.8977 67.1406 38.5279 67.1406V66.8438H41.9888V67.1406C41.6398 67.1406 41.4055 67.1771 41.2857 67.25C41.1659 67.3177 41.0721 67.4036 41.0044 67.5078C40.9367 67.612 40.9029 67.9505 40.9029 68.5234V71.7969ZM53.1178 71.2812C52.9251 72.224 52.5475 72.9505 51.985 73.4609C51.4225 73.9661 50.8001 74.2188 50.1178 74.2188C49.3053 74.2188 48.597 73.8776 47.9928 73.1953C47.3887 72.513 47.0866 71.5911 47.0866 70.4297C47.0866 69.3047 47.4199 68.3906 48.0866 67.6875C48.7584 66.9844 49.5631 66.6328 50.5006 66.6328C51.2038 66.6328 51.7819 66.8203 52.235 67.1953C52.6881 67.5651 52.9147 67.9505 52.9147 68.3516C52.9147 68.5495 52.8496 68.7109 52.7194 68.8359C52.5944 68.9557 52.4173 69.0156 52.1881 69.0156C51.8808 69.0156 51.6491 68.9167 51.4928 68.7188C51.4043 68.6094 51.3444 68.401 51.3131 68.0938C51.2871 67.7865 51.1829 67.5521 51.0006 67.3906C50.8183 67.2344 50.5657 67.1562 50.2428 67.1562C49.722 67.1562 49.3027 67.349 48.985 67.7344C48.5631 68.2448 48.3522 68.9193 48.3522 69.7578C48.3522 70.612 48.5605 71.3672 48.9772 72.0234C49.3991 72.6745 49.9668 73 50.6803 73C51.1907 73 51.6491 72.8255 52.0553 72.4766C52.3418 72.237 52.6204 71.8021 52.8913 71.1719L53.1178 71.2812ZM56.1921 70.0312L57.0828 70.0156C59.2078 70.0156 60.2703 70.6719 60.2703 71.9844C60.2703 72.5938 60.0099 73.0833 59.489 73.4531C58.9734 73.8177 58.2286 74 57.2546 74H53.8171V73.7109C54.2807 73.7109 54.5776 73.6276 54.7078 73.4609C54.838 73.2891 54.9031 72.9089 54.9031 72.3203V68.5234C54.9031 67.9661 54.8744 67.638 54.8171 67.5391C54.7599 67.4349 54.6713 67.3438 54.5515 67.2656C54.4317 67.1823 54.1869 67.1406 53.8171 67.1406V66.8438H57.5593V67.1406C57.0437 67.1406 56.726 67.1719 56.6062 67.2344C56.4864 67.2917 56.3875 67.3698 56.3093 67.4688C56.2312 67.5625 56.1921 67.9141 56.1921 68.5234V70.0312ZM56.1921 73.3828C56.4682 73.4557 56.7442 73.4922 57.0203 73.4922C57.5411 73.4922 57.963 73.3542 58.2859 73.0781C58.614 72.8021 58.7781 72.4531 58.7781 72.0312C58.7781 71.0312 58.0828 70.5312 56.6921 70.5312C56.5724 70.5312 56.4057 70.5339 56.1921 70.5391V73.3828ZM60.9227 63.2188V62.8906C61.7144 63.2812 62.3732 63.7422 62.8993 64.2734C63.6441 65.0339 64.2196 65.9271 64.6258 66.9531C65.0321 67.974 65.2352 69.0391 65.2352 70.1484C65.2352 71.763 64.8368 73.2344 64.0399 74.5625C63.2482 75.8958 62.2092 76.849 60.9227 77.4219V77.1328C61.5633 76.7734 62.0894 76.2865 62.5008 75.6719C62.9175 75.0625 63.2248 74.2865 63.4227 73.3438C63.6258 72.3958 63.7274 71.4089 63.7274 70.3828C63.7274 69.2734 63.6415 68.2604 63.4696 67.3438C63.3394 66.625 63.1753 66.0495 62.9774 65.6172C62.7847 65.1849 62.5269 64.7682 62.204 64.3672C61.8811 63.9661 61.454 63.5833 60.9227 63.2188ZM74.4776 77.1328V77.4219C73.6912 77.026 73.0349 76.5625 72.5089 76.0312C71.7589 75.276 71.1807 74.3854 70.7745 73.3594C70.3682 72.3333 70.1651 71.2682 70.1651 70.1641C70.1651 68.5495 70.5636 67.0781 71.3604 65.75C72.1573 64.4167 73.1964 63.4635 74.4776 62.8906V63.2188C73.837 63.5729 73.3109 64.0573 72.8995 64.6719C72.488 65.2865 72.1807 66.0651 71.9776 67.0078C71.7745 67.9505 71.6729 68.9349 71.6729 69.9609C71.6729 71.0755 71.7589 72.0885 71.9307 73C72.0662 73.7188 72.2302 74.2943 72.4229 74.7266C72.6156 75.1641 72.8734 75.5833 73.1964 75.9844C73.5245 76.3854 73.9516 76.7682 74.4776 77.1328ZM83.2551 74H78.6848V73.7109C79.2837 73.7005 79.6848 73.6198 79.8879 73.4688C80.0962 73.3177 80.2056 73.0052 80.216 72.5312C78.4556 72.5312 77.1848 72.1615 76.4035 71.4219C75.6275 70.6823 75.2394 69.7578 75.2394 68.6484C75.2394 67.8151 75.4686 67.1042 75.9269 66.5156C76.3905 65.9271 76.9608 65.5208 77.6379 65.2969C78.315 65.0677 79.1743 64.9531 80.216 64.9531C80.2056 64.5156 80.1379 64.2266 80.0129 64.0859C79.8879 63.9453 79.7473 63.849 79.591 63.7969C79.44 63.7396 79.1379 63.7057 78.6848 63.6953V63.4062H83.2551V63.6953C82.6405 63.7161 82.2368 63.8099 82.0441 63.9766C81.8514 64.138 81.742 64.4635 81.716 64.9531C82.841 64.9531 83.7264 65.0755 84.3723 65.3203C85.0181 65.5651 85.5676 65.9714 86.0207 66.5391C86.4738 67.1068 86.7004 67.8099 86.7004 68.6484C86.7004 69.7266 86.3228 70.6432 85.5676 71.3984C84.8124 72.1536 83.5285 72.5312 81.716 72.5312C81.7316 73 81.8384 73.3125 82.0363 73.4688C82.2394 73.6198 82.6457 73.7005 83.2551 73.7109V74ZM81.716 71.9531C82.4816 71.9531 83.091 71.8542 83.5441 71.6562C84.0025 71.4531 84.3801 71.0911 84.6769 70.5703C84.979 70.0495 85.1301 69.4062 85.1301 68.6406C85.1301 67.9219 84.979 67.3151 84.6769 66.8203C84.3749 66.3203 83.9946 65.9818 83.5363 65.8047C83.0832 65.6224 82.4764 65.5312 81.716 65.5312V71.9531ZM80.216 71.9531V65.5312C79.4087 65.5312 78.7863 65.6302 78.3488 65.8281C77.9113 66.0208 77.5441 66.3516 77.2473 66.8203C76.9556 67.2891 76.8098 67.8958 76.8098 68.6406C76.8098 69.4583 76.9816 70.138 77.3254 70.6797C77.6743 71.2214 78.0832 71.5703 78.5519 71.7266C79.0207 71.8776 79.5754 71.9531 80.216 71.9531ZM89.095 72.4844C89.3398 72.4844 89.5455 72.5703 89.7122 72.7422C89.8789 72.9089 89.9622 73.112 89.9622 73.3516C89.9622 73.5911 89.8763 73.7969 89.7044 73.9688C89.5377 74.1354 89.3346 74.2188 89.095 74.2188C88.8554 74.2188 88.6497 74.1354 88.4778 73.9688C88.3112 73.7969 88.2278 73.5911 88.2278 73.3516C88.2278 73.1068 88.3112 72.901 88.4778 72.7344C88.6497 72.5677 88.8554 72.4844 89.095 72.4844ZM99.1381 65.1562C99.1381 64.5208 99.0339 64.1198 98.8256 63.9531C98.6225 63.7812 98.2084 63.6953 97.5834 63.6953V63.4062H102.169V63.6953C101.513 63.7161 101.094 63.8203 100.912 64.0078C100.729 64.1953 100.638 64.638 100.638 65.3359V72.0703C100.638 72.7682 100.729 73.2109 100.912 73.3984C101.094 73.5859 101.513 73.6901 102.169 73.7109V74H97.5834V73.7109C98.2553 73.6901 98.6824 73.5859 98.8647 73.3984C99.0469 73.2057 99.1381 72.763 99.1381 72.0703V65.9922L94.224 72.2891C94.2292 72.7422 94.2579 73.0469 94.31 73.2031C94.3673 73.3542 94.4949 73.474 94.6928 73.5625C94.8959 73.651 95.2527 73.7005 95.7631 73.7109V74H91.1928V73.7109C91.849 73.6901 92.2683 73.5859 92.4506 73.3984C92.6329 73.2109 92.724 72.7682 92.724 72.0703V65.3359C92.724 64.638 92.6329 64.1953 92.4506 64.0078C92.2683 63.8203 91.849 63.7161 91.1928 63.6953V63.4062H95.7631V63.6953C95.1016 63.7161 94.6798 63.8203 94.4975 64.0078C94.3152 64.1953 94.224 64.638 94.224 65.3359V71.4375L99.1381 65.1562ZM104.275 72.4844C104.52 72.4844 104.725 72.5703 104.892 72.7422C105.059 72.9089 105.142 73.112 105.142 73.3516C105.142 73.5911 105.056 73.7969 104.884 73.9688C104.718 74.1354 104.515 74.2188 104.275 74.2188C104.035 74.2188 103.83 74.1354 103.658 73.9688C103.491 73.7969 103.408 73.5911 103.408 73.3516C103.408 73.1068 103.491 72.901 103.658 72.7344C103.83 72.5677 104.035 72.4844 104.275 72.4844ZM111.935 63.1641C113.31 63.1641 114.5 63.6875 115.505 64.7344C116.516 65.776 117.021 67.0781 117.021 68.6406C117.021 70.25 116.513 71.5859 115.498 72.6484C114.482 73.7109 113.253 74.2422 111.81 74.2422C110.352 74.2422 109.125 73.724 108.13 72.6875C107.141 71.651 106.646 70.3099 106.646 68.6641C106.646 66.9818 107.219 65.6094 108.365 64.5469C109.36 63.625 110.55 63.1641 111.935 63.1641ZM111.787 63.7344C110.839 63.7344 110.078 64.0859 109.505 64.7891C108.792 65.6641 108.435 66.9453 108.435 68.6328C108.435 70.362 108.805 71.6927 109.545 72.625C110.112 73.3333 110.862 73.6875 111.795 73.6875C112.789 73.6875 113.61 73.2995 114.255 72.5234C114.907 71.7474 115.232 70.5234 115.232 68.8516C115.232 67.0391 114.875 65.6875 114.162 64.7969C113.589 64.0885 112.797 63.7344 111.787 63.7344ZM119.455 72.4844C119.7 72.4844 119.905 72.5703 120.072 72.7422C120.239 72.9089 120.322 73.112 120.322 73.3516C120.322 73.5911 120.236 73.7969 120.064 73.9688C119.898 74.1354 119.694 74.2188 119.455 74.2188C119.215 74.2188 119.009 74.1354 118.838 73.9688C118.671 73.7969 118.588 73.5911 118.588 73.3516C118.588 73.1068 118.671 72.901 118.838 72.7344C119.009 72.5677 119.215 72.4844 119.455 72.4844ZM121.623 63.2188V62.8906C122.415 63.2812 123.073 63.7422 123.599 64.2734C124.344 65.0339 124.92 65.9271 125.326 66.9531C125.732 67.974 125.935 69.0391 125.935 70.1484C125.935 71.763 125.537 73.2344 124.74 74.5625C123.948 75.8958 122.909 76.849 121.623 77.4219V77.1328C122.264 76.7734 122.79 76.2865 123.201 75.6719C123.618 75.0625 123.925 74.2865 124.123 73.3438C124.326 72.3958 124.428 71.4089 124.428 70.3828C124.428 69.2734 124.342 68.2604 124.17 67.3438C124.04 66.625 123.875 66.0495 123.678 65.6172C123.485 65.1849 123.227 64.7682 122.904 64.3672C122.581 63.9661 122.154 63.5833 121.623 63.2188Z" fill="black"/>
</svg>
