<svg width="4" height="15" viewBox="0 0 4 15" fill="none" xmlns="http://www.w3.org/2000/svg">
<path d="M0.869227 10.353L0.617227 0H3.01123L2.75923 10.353H0.869227ZM1.87723 14.826C1.44323 14.826 1.08623 14.693 0.806227 14.427C0.540227 14.147 0.407227 13.818 0.407227 13.44C0.407227 13.048 0.540227 12.719 0.806227 12.453C1.08623 12.173 1.44323 12.033 1.87723 12.033C2.28323 12.033 2.61923 12.173 2.88523 12.453C3.16523 12.719 3.30523 13.048 3.30523 13.44C3.30523 13.818 3.16523 14.147 2.88523 14.427C2.61923 14.693 2.28323 14.826 1.87723 14.826Z" fill="white"/>
</svg>
