<svg width="22" height="22" viewBox="0 0 22 22" fill="none" xmlns="http://www.w3.org/2000/svg">
<path fill-rule="evenodd" clip-rule="evenodd" d="M4.5835 3.66683H17.4168C17.9231 3.66683 18.3335 4.07723 18.3335 4.5835V17.4168C18.3335 17.9231 17.9231 18.3335 17.4168 18.3335H4.5835C4.07724 18.3335 3.66683 17.9231 3.66683 17.4168V4.5835C3.66683 4.07724 4.07723 3.66683 4.5835 3.66683ZM1.8335 4.5835C1.8335 3.06472 3.06472 1.8335 4.5835 1.8335H17.4168C18.9357 1.8335 20.1668 3.06472 20.1668 4.5835V17.4168C20.1668 18.9357 18.9357 20.1668 17.4168 20.1668H4.5835C3.06472 20.1668 1.8335 18.9357 1.8335 17.4168V4.5835Z" fill="#8F92A1"/>
<path fill-rule="evenodd" clip-rule="evenodd" d="M10.9998 11C8.46854 11 6.4165 8.53757 6.4165 5.5H8.24984C8.24984 7.85222 9.77985 9.16667 10.9998 9.16667C12.2198 9.16667 13.7498 7.85222 13.7498 5.5H15.5832C15.5832 8.53757 13.5311 11 10.9998 11Z" fill="#8F92A1"/>
</svg>
