<svg width="18" height="18" viewBox="0 0 18 18" fill="none" xmlns="http://www.w3.org/2000/svg">
<path d="M6.85714 16.2783H3.42857V18H1.71429V16.2783H0.857143C0.629814 16.2783 0.411797 16.1876 0.251051 16.0262C0.0903058 15.8647 0 15.6458 0 15.4175V2.50485C0 2.27654 0.0903058 2.05758 0.251051 1.89614C0.411797 1.7347 0.629814 1.64401 0.857143 1.64401H6.85714V0.430223C6.85717 0.367743 6.87074 0.306019 6.89692 0.249337C6.92309 0.192656 6.96124 0.142377 7.00871 0.101993C7.05618 0.0616094 7.11183 0.0320887 7.1718 0.0154821C7.23178 -0.00112452 7.29463 -0.00441888 7.356 0.00582779L16.4263 1.52435C16.6264 1.55777 16.8083 1.66141 16.9395 1.81683C17.0707 1.97225 17.1428 2.16938 17.1429 2.37314V4.22653H18V5.94822H17.1429V11.9741H18V13.6958H17.1429V15.5492C17.1428 15.7529 17.0707 15.9501 16.9395 16.1055C16.8083 16.2609 16.6264 16.3646 16.4263 16.398L15.4286 16.565V18H13.7143V16.8525L7.356 17.9165C7.29463 17.9267 7.23178 17.9235 7.1718 17.9068C7.11183 17.8902 7.05618 17.8607 7.00871 17.8203C6.96124 17.7799 6.92309 17.7297 6.89692 17.673C6.87074 17.6163 6.85717 17.5546 6.85714 17.4921V16.2783ZM8.57143 15.9684L15.4286 14.8201V3.10227L8.57143 1.95477V15.9676V15.9684ZM12.4286 11.1133C11.7189 11.1133 11.1429 10.1491 11.1429 8.96116C11.1429 7.7732 11.7189 6.80906 12.4286 6.80906C13.1383 6.80906 13.7143 7.7732 13.7143 8.96116C13.7143 10.1491 13.1383 11.1133 12.4286 11.1133Z" fill="#8F92A1"/>
</svg>
