<svg width="35" height="35" viewBox="0 0 35 35" fill="none" xmlns="http://www.w3.org/2000/svg">
<path fill-rule="evenodd" clip-rule="evenodd" d="M18.6136 9.69327V10.0787C22.458 11.2228 25.2613 14.7841 25.2613 19.0001V25.6478C25.9956 25.6478 26.5908 26.2431 26.5908 26.9774C26.5908 27.7116 25.9956 28.3069 25.2613 28.3069H6.64766C5.91338 28.3069 5.31812 27.7116 5.31812 26.9774C5.31812 26.2431 5.91337 25.6478 6.64766 25.6478V19.0001C6.64766 14.7841 9.45102 11.2228 13.2954 10.0787V9.69327C13.2954 8.22469 14.4859 7.03418 15.9545 7.03418C17.4231 7.03418 18.6136 8.22469 18.6136 9.69327ZM9.30682 25.6477H22.6023V19C22.6023 15.3285 19.626 12.3522 15.9545 12.3522C12.2831 12.3522 9.30682 15.3285 9.30682 19V25.6477ZM18.6136 28.3068H13.2955C13.2955 29.7754 14.4859 30.9659 15.9545 30.9659C17.4232 30.9659 18.6136 29.7754 18.6136 28.3068Z" fill="#8F92A1"/>
<g clip-path="url(#clip0_98_2832)">
<circle cx="23.9318" cy="11.0226" r="10.6364" fill="#064570"/>
</g>
<path d="M23.6301 15.375V9.48245L22.4069 9.76964V8.72727L24.2045 7.92954H25.0447V15.375H23.6301Z" fill="white"/>
<defs>
<clipPath id="clip0_98_2832">
<rect width="21.2727" height="21.2727" fill="white" transform="translate(13.2954 0.38623)"/>
</clipPath>
</defs>
</svg>
